<?xml version="1.0" encoding="UTF-8"?>
<svg id="Capa_1" xmlns="http://www.w3.org/2000/svg" viewBox="0 0 400 400">
  <defs>
    <style>
      .cls-1 {
        fill: #53706a;
      }
    </style>
  </defs>
  <path class="cls-1" d="M172.84,257.29c0-21.4-.08-42.65.04-63.91.04-6.77-1.49-13.08-4.29-19.16-2.44-5.29-5.86-9.82-10.05-13.91-18.5-18.01-22.99-47.09-10.46-69.69,9.28-16.75,23.42-26.71,42.97-26.69,19.56.02,33.65,10.05,42.88,26.82,12.45,22.6,7.96,51.54-10.69,69.66-7.45,7.24-12.58,15.47-13.85,25.89-.17,1.4-.26,2.82-.26,4.24-.01,36.09-.01,72.18-.01,108.27v2.61c1.05-1.27,1.77-1.87,2.16-2.64,2.36-4.62,4.68-9.26,6.95-13.93,1.11-2.29,2.78-3.38,5.37-3.35,3.46.03,7.49.89,10.23-.57,2.65-1.41,3.98-5.31,5.88-8.13,3.62-5.39,3.69-5.41,9.92-4.15,5.73,1.16,11.45,2.41,17.21,3.38,3.54.59,5.51,2.28,6.2,5.88.74,3.89,2.01,7.67,2.78,11.55.37,1.87,1.31,2.74,2.96,3.32,2.31.82,4.53,1.9,6.86,2.65,9.19,2.96,17.26,7.99,24.95,13.64,1.25.92,2.37,2.49,2.8,3.98,1.6,5.52,2.92,11.13,4.27,16.72.89,3.67-1.03,6.15-4.83,6.18-7.65.06-15.3.02-22.95.02-46.37,0-92.74.31-139.11-.11-29.43-.27-50.49-14.5-63.03-41.13-3.83-8.13-5.47-16.85-5.55-25.83-.08-9.07-.04-18.14-.02-27.21.01-3.89,1.63-5.5,5.53-5.5,11.8-.02,23.61-.1,35.41.01,18.5.18,34.4,6.81,47.68,19.71.47.46.96.9,1.45,1.34.05.04.16.02.6.04ZM200.05,303.74v-3.55c0-36-.02-72.01.04-108.01,0-3.38.23-6.82.83-10.14,2-11.08,7.68-20.06,15.72-27.86,17.7-17.17,20.2-44.98,6.06-64.46-16.01-22.06-46-22.53-62.68-.98-14.99,19.36-12.59,48.26,5.32,65.62,10.89,10.55,16.53,23.49,16.56,38.72.05,24.85,0,49.71.04,74.56,0,1.28.07,2.73.65,3.81,6.21,11.41,8.76,23.63,8.4,36.54-.09,3.24-.01,6.48-.01,10.1,3.68-4.7,2.6-11.73,9.07-14.34ZM197.76,326.74h109.77c-.69-2.75-1.46-5.28-1.92-7.86-.37-2.02-1.41-3.25-3.06-4.43-6.1-4.37-12.6-7.88-19.7-10.34-3.82-1.33-7.64-2.77-11.25-4.59-1.48-.75-2.93-2.43-3.46-4.01-1.38-4.1-2.31-8.36-3.26-12.59-.34-1.52-1.01-2.22-2.54-2.5-4.36-.78-8.72-1.6-13.03-2.6-1.52-.35-2.21.14-2.96,1.31-1.87,2.95-3.89,5.8-5.78,8.74-1.24,1.94-2.91,2.81-5.21,2.74-2.64-.08-5.3-.17-7.92.06-.97.09-2.27.85-2.73,1.68-2.26,4.13-4.11,8.5-6.49,12.56-.95,1.62-2.7,3.06-4.42,3.89-2.79,1.33-5.87,2.02-8.78,3.12-.78.3-1.7.96-2.01,1.68-1.81,4.24-3.45,8.54-5.27,13.12ZM132.04,245.6c0,10.13,0,19.45.02,28.78,0,.61.11,1.44.5,1.8,4.16,3.89,8.38,7.7,12.67,11.61.24-.49.37-.65.37-.8.02-11.88.05-23.75-.03-35.63,0-.74-.86-1.89-1.56-2.13-3.81-1.3-7.69-2.37-11.97-3.64ZM154.74,308.74c-3.15-2.86-5.63-5.31-8.33-7.48-1.06-.85-2.61-1.51-3.95-1.52-13.03-.11-26.05-.07-39.08-.06-.79,0-1.57.1-3,.2,2.44,2.98,4.47,5.55,6.62,8.02.42.48,1.29.81,1.95.81,15,.04,30,.03,45.79.03ZM154.7,254.23c0,14.27,0,27.58.02,40.89,0,.6.17,1.39.57,1.77,2.62,2.49,5.32,4.89,8.11,7.42.23-.57.35-.73.35-.89.02-13.41.03-26.82,0-40.23,0-.75-.31-1.75-.85-2.22-2.45-2.16-5.03-4.16-8.2-6.74ZM119.87,317.82c6.83,4.81,14.37,7.88,22.51,8.4,10.33.67,20.72.48,31.08.63.19,0,.39-.26.69-.48-2.88-2.62-5.64-5.19-8.49-7.66-.58-.5-1.48-.87-2.24-.87-14.52-.05-29.03-.04-43.55-.04ZM92.72,281.53c.83,2.59,1.62,4.8,2.23,7.06.45,1.7,1.45,2.06,3.09,2.05,11.42-.06,22.84-.03,34.27-.04.6,0,1.19-.14,2.19-.26-3.17-2.9-5.96-5.57-8.91-8.06-.68-.57-1.89-.71-2.86-.72-6.51-.06-13.03-.03-19.54-.03-3.37,0-6.73,0-10.46,0ZM173.23,273.78c-.21.4-.35.55-.35.7-.02,12.37-.03,24.75,0,37.12,0,.61.15,1.41.54,1.78,2.62,2.49,5.32,4.9,8.2,7.52,2.23-18.18-1.02-36.34-8.39-47.12ZM98.61,245.4c8.22,7.47,16.04,14.58,24.13,21.93v-21.93h-24.13ZM114.73,272.34c-7.98-7.25-15.49-14.08-23.28-21.16v21.16h23.28Z"/>
  <path class="cls-1" d="M159.19,119.02c.28-11.57,3.67-21.14,11.62-28.73,13.69-13.05,34.31-10.6,45.04,5.58,9.55,14.4,8.81,29.47,1.12,44.3-2.34,4.5-5.71,8.76-9.47,12.18-10.12,9.22-23.36,8.99-33.53-.27-9.9-9.02-14.18-20.63-14.79-33.06ZM213.64,119.82c.03-8.4-2.12-14.97-6.14-20.17-8.84-11.43-24.06-11.49-32.94-.13-9.53,12.19-7.94,31.69,3.58,43.95,8.08,8.59,17.74,8.6,25.75-.1,6.48-7.04,9.42-15.52,9.75-23.55Z"/>
  <path class="cls-1" d="M250.05,290.62c2.46.08,4.46,2.19,4.38,4.64-.08,2.45-2.2,4.46-4.64,4.38-2.46-.08-4.45-2.19-4.38-4.65.08-2.47,2.18-4.45,4.64-4.38Z"/>
  <path class="cls-1" d="M231.92,299.7c2.46.08,4.45,2.19,4.38,4.64-.07,2.45-2.2,4.46-4.65,4.38-2.46-.08-4.45-2.19-4.38-4.65.08-2.47,2.18-4.45,4.64-4.38Z"/>
  <path class="cls-1" d="M254.44,313.36c-.05,2.45-2.15,4.48-4.59,4.43-2.46-.05-4.47-2.14-4.43-4.6.05-2.47,2.13-4.48,4.59-4.43,2.46.05,4.48,2.14,4.43,4.59Z"/>
  <path class="cls-1" d="M277.05,308.77c2.46-.05,4.55,1.97,4.59,4.43.05,2.45-1.98,4.55-4.43,4.6-2.45.05-4.54-1.97-4.59-4.43-.05-2.47,1.96-4.55,4.43-4.59Z"/>
  <path class="cls-1" d="M195.49,104.72c-.06,2.45-2.17,4.47-4.61,4.42-2.46-.06-4.47-2.16-4.41-4.61.06-2.47,2.15-4.47,4.61-4.41,2.46.06,4.47,2.16,4.41,4.61Z"/>
  <path class="cls-1" d="M186.42,118.31c-.05,2.45-2.15,4.48-4.59,4.43-2.46-.05-4.47-2.14-4.43-4.6.05-2.47,2.13-4.48,4.59-4.43,2.46.05,4.48,2.14,4.43,4.59Z"/>
  <path class="cls-1" d="M200.16,122.79c2.46.06,4.46,2.17,4.4,4.62-.06,2.45-2.18,4.47-4.63,4.4-2.46-.06-4.46-2.17-4.4-4.63.06-2.47,2.16-4.46,4.62-4.4Z"/>
  <path class="cls-1" d="M190.96,136.36c0,2.45-2.05,4.52-4.5,4.53-2.46,0-4.51-2.04-4.52-4.51,0-2.47,2.03-4.52,4.5-4.52,2.46,0,4.52,2.04,4.52,4.5Z"/>
</svg>