<?xml version="1.0" encoding="UTF-8"?>
<svg id="Capa_1" xmlns="http://www.w3.org/2000/svg" viewBox="0 0 400 400">
  <defs>
    <style>
      .cls-1 {
        fill: #53706a;
      }
    </style>
  </defs>
  <path class="cls-1" d="M196.11,192.02c0-7.76.04-15.23-.06-22.69-.01-.89-.71-1.82-1.25-2.63-5.66-8.43-11-17.02-14.67-26.56-6.18-16.06-3.4-31.3,4.73-45.73,3.23-5.73,7.7-10.78,11.83-15.96,1.91-2.39,3.88-2.31,5.94-.12,12.45,13.19,19.93,28.53,19.82,47-.05,7.81-2.58,15.08-6.27,21.84-3.7,6.77-7.95,13.25-11.89,19.89-.57.96-1.11,2.11-1.13,3.18-.1,7.4-.05,14.8-.05,22.21,0,.29.04.59.09,1.19,2.29-3.53,4.2-6.91,6.52-9.97,9.63-12.7,22.81-19.52,38.2-22.46,11.81-2.25,23.66-2.01,35.48.03,4.68.81,5.6,2.32,4,6.9-7.42,21.24-19.98,38.2-40.78,48.06-12.91,6.12-26.61,7.45-40.68,6.08-.82-.08-1.63-.16-2.85-.29,0,1.06,0,1.93,0,2.8,0,8.48,0,16.97,0,25.45,0,3.26-1.09,4.76-3.4,4.79-2.37.03-3.58-1.6-3.58-4.93-.01-8.4,0-16.8,0-25.2,0-.89,0-1.78,0-2.19-4.97,0-9.61.15-14.23-.02-26.86-.98-47.02-13.46-60.77-36.25-3.57-5.92-6.07-12.52-8.75-18.94-1.51-3.63-.42-5.37,3.38-6.04,19.01-3.35,37.61-2.63,55.25,6.15,10.1,5.03,17.85,12.63,23.48,22.4.33.57.67,1.14,1.02,1.71.03.05.12.07.6.32ZM205.39,208.85c1.3-.7,2.1-1.11,2.89-1.56,10.29-5.94,20.58-11.88,30.87-17.82.65-.37,1.28-.79,1.96-1.08,1.77-.73,3.33-.34,4.33,1.3,1.06,1.73.69,3.36-.89,4.64-.58.47-1.26.8-1.91,1.18-8.06,4.66-16.12,9.31-24.17,13.96-3.2,1.85-6.4,3.71-9.6,5.56,16.27,1.74,31.34-1.19,44.68-10.81,12.74-9.17,21.02-21.64,26.56-36.22-10.09-2.34-25.79-1.71-37.6,1.72-19.69,5.72-31.58,18.99-37.13,39.13ZM119.62,167.4c5.99,15.62,14.53,28.39,27.85,37.55,12.97,8.93,27.49,11.74,43.65,10.5-1.26-.77-1.93-1.21-2.62-1.61-10.71-6.19-21.43-12.37-32.14-18.56-2.84-1.64-3.69-3.55-2.5-5.56,1.15-1.94,3.12-2.14,5.88-.55,5.54,3.19,11.07,6.39,16.61,9.59,5.95,3.43,11.9,6.86,17.9,10.32.09-.35.2-.52.17-.66-3.69-13.75-10.79-25.12-23.15-32.7-10.12-6.21-21.36-8.62-33.05-8.95-6.01-.17-12.04.39-18.61.63ZM196.13,154.84c0-.8,0-1.59,0-2.39,0-7.73,0-15.46,0-23.18,0-1.91-.1-3.84.13-5.72.25-1.99,1.58-3.09,3.65-2.95,1.94.13,2.99,1.28,3.16,3.21.06.74.04,1.49.04,2.24,0,8.97,0,17.95,0,26.92,0,.66.09,1.32.17,2.31,16.38-23.07,17.27-44.9-3.56-69.73-18.84,16.42-20.63,46.7-3.6,69.29Z"/>
  <path class="cls-1" d="M129.87,293.61c-1.71-1.57-3.01-3.06-4.58-4.17-5.42-3.84-10.8-7.79-16.45-11.27-6.57-4.04-10.83-9.74-13.26-16.88-4.51-13.28-8.91-26.6-13.34-39.9-1.6-4.8-3.21-9.6-4.71-14.44-1.91-6.14-.56-11.71,3.51-16.54,4.69-5.57,11.5-6.26,17.37-1.95,4.01,2.94,6.61,7.01,8.56,11.46,4.04,9.2,7.92,18.46,11.81,27.72.6,1.43,1.29,1.91,2.99,2.15,2.86.41,5.91,1.22,8.33,2.74,5.34,3.36,10.3,7.31,15.48,10.92,1.34.93,2.85,1.74,4.4,2.2,11.76,3.47,18.93,11.09,21.58,23.11,1.7,7.7,3.75,15.32,5.57,22.99.37,1.54.85,2.33,2.72,2.38,5.02.16,8.19,3.41,8.36,8.39.14,4.07.15,8.15.03,12.22-.15,5.31-3.6,8.57-8.97,8.58-16.47.02-32.93.02-49.4,0-5.57,0-9-3.41-9.1-9.01-.07-3.57-.04-7.15-.02-10.73.03-5.47,2.26-8.24,7.59-9.48.31-.07.61-.2,1.52-.5ZM170.52,294.05c-1.96-8.07-4.03-15.68-5.64-23.39-2.1-10.04-8.14-16.01-17.87-18.65-1.64-.44-3.24-1.29-4.64-2.26-5.53-3.85-10.91-7.9-16.45-11.71-4.32-2.97-9.73-.74-10.57,4.26-.51,3.06.96,5.26,3.37,6.98,7.57,5.42,15.14,10.84,22.69,16.28,2.34,1.69,2.89,3.69,1.61,5.48-1.29,1.8-3.32,1.89-5.69.19-7.64-5.47-15.29-10.92-22.89-16.44-7.37-5.36-8.27-14.26-2.3-21.08.5-.57.8-1.82.53-2.48-4.02-9.66-8.03-19.32-12.33-28.85-1.24-2.74-3.11-5.34-5.2-7.52-3.25-3.41-6.99-2.83-9.57,1.13-1.82,2.78-2.46,5.78-1.37,9.03.84,2.52,1.66,5.05,2.49,7.57,5.13,15.44,10.24,30.88,15.43,46.3,1.91,5.68,5.28,10.19,10.51,13.44,5.78,3.6,11.26,7.68,16.9,11.5,3.19,2.16,5.69,4.9,6.94,8.56.48,1.41,1.23,1.7,2.55,1.69,5.9-.05,11.81-.02,17.72-.02,4.48,0,8.96,0,13.79,0ZM154.31,301.04c-7.9,0-15.8.05-23.69-.03-2.17-.02-2.99.75-2.9,2.91.12,3.24.08,6.48.03,9.72-.03,1.82.52,2.74,2.57,2.73,16.21-.05,32.42-.05,48.64,0,1.75,0,2.39-.72,2.36-2.38-.04-3.32-.12-6.65.01-9.97.09-2.31-.8-3.04-3.06-3.01-7.98.1-15.96.04-23.94.04Z"/>
  <path class="cls-1" d="M270.07,293.64c1.09.3,1.54.45,2.01.56,4.47,1.02,6.97,3.83,7.11,8.35.12,4.07.12,8.15,0,12.22-.17,5.16-3.66,8.53-8.79,8.54-16.63.04-33.26.03-49.9,0-5.18-.01-8.61-3.34-8.76-8.54-.12-4.07-.11-8.15.03-12.22.17-4.99,3.32-8.26,8.33-8.43,1.84-.06,2.38-.77,2.76-2.35,1.82-7.67,3.88-15.29,5.57-22.99,2.64-12.01,9.78-19.66,21.55-23.13,1.63-.48,3.21-1.34,4.61-2.32,4.98-3.46,9.89-7.03,14.79-10.61,2.85-2.08,5.97-3.12,9.52-3.15.72,0,1.77-.96,2.1-1.72,4.02-9.2,7.81-18.51,11.94-27.66,1.42-3.14,3.29-6.21,5.53-8.82,7.94-9.25,19.84-6.79,23.81,4.77,1.17,3.39,1.5,6.87.37,10.29-6.06,18.36-12.12,36.72-18.31,55.04-2.38,7.06-6.65,12.67-13.14,16.67-5.72,3.53-11.17,7.52-16.66,11.41-1.51,1.07-2.76,2.5-4.45,4.08ZM229.48,293.77c.52.14.76.25,1,.25,10.31.01,20.63.05,30.94-.04.66,0,1.67-.74,1.91-1.37,1.5-3.89,4.1-6.76,7.51-9.05,5.17-3.48,10.11-7.33,15.47-10.5,6.35-3.75,10.04-9.26,12.28-16.01,5.73-17.34,11.46-34.67,17.19-52.01,1.14-3.44.41-6.58-1.63-9.44-2.55-3.56-6.05-4.09-9.08-.94-2.21,2.29-4.21,5.01-5.51,7.89-4.28,9.45-8.24,19.05-12.22,28.63-.28.67,0,1.93.49,2.49,5.98,6.83,5.1,15.72-2.24,21.08-6.24,4.56-12.55,9.04-18.83,13.54-1.69,1.21-3.36,2.46-5.1,3.58-1.51.97-3.26.93-4.25-.51-.68-.99-.88-2.63-.64-3.85.17-.86,1.35-1.6,2.21-2.22,7.41-5.36,14.86-10.66,22.26-16.03,3.77-2.73,4.59-6.67,2.19-9.92-2.3-3.11-6.31-3.51-9.94-.94-4.34,3.07-8.7,6.13-12.96,9.31-3.02,2.25-6.16,4.09-9.83,5.17-7.88,2.32-12.94,7.49-14.92,15.57-2.05,8.38-4.15,16.75-6.28,25.3ZM245.21,316.34c8.06,0,16.13-.05,24.19.03,2.03.02,2.89-.65,2.84-2.72-.08-3.32-.07-6.65.01-9.97.05-1.91-.68-2.67-2.63-2.67-16.13.04-32.26.04-48.39,0-2.01,0-2.61.88-2.57,2.73.07,3.24.09,6.49-.02,9.72-.07,2.12.64,2.95,2.87,2.92,7.9-.11,15.8-.04,23.69-.04Z"/>
</svg>