<?xml version="1.0" encoding="UTF-8"?>
<svg id="Capa_1" xmlns="http://www.w3.org/2000/svg" viewBox="0 0 400 400">
  <defs>
    <style>
      .cls-1 {
        fill: #53706a;
      }
    </style>
  </defs>
  <path class="cls-1" d="M313.59,207.11c-.57,4.08-.98,8.19-1.73,12.24-6.6,35.52-25.78,62.17-57.11,79.96-17.45,9.9-36.4,14.59-56.47,14.21-25.02-.47-47.31-8.84-66.89-24.24-22.4-17.63-37.35-40.23-42.75-68.38-6.45-33.67,1.13-64.34,22.4-91.21,18.22-23,42.24-36.7,71.14-41.79,3.7-.65,7.45-.97,11.18-1.45,4.58,0,9.17,0,13.75,0,.64.13,1.28.28,1.93.38,5.76.9,11.59,1.44,17.26,2.74,43.78,10.04,78.17,46.62,85.57,90.86.69,4.14,1.15,8.32,1.72,12.48v14.19ZM200.26,304.7c57.64-.23,104.61-47.33,104.45-104.73-.16-58.21-47.09-104.83-105.33-104.64-56.9.19-104.32,48.2-104.07,105.36.25,55.74,49.18,104.23,104.95,104.01Z"/>
  <path class="cls-1" d="M195.58,240.04c-6.63-.58-13-.47-19.06-1.79-16.72-3.64-27.62-16.3-29.69-33.4-.9-7.48-.58-14.9.9-22.27.6-3,2.01-4.71,4.23-4.64,1.21.04,2.82.52,3.52,1.38,5.14,6.33,12.02,10.01,19.42,12.71,8.12,2.96,15.24,7.11,20.64,14.31,0-3.93.07-7.86-.07-11.78-.02-.6-.96-1.22-1.55-1.74-12.42-10.89-17.31-28.06-12.12-43.06,2.93-8.46,8.17-15.33,15.1-20.94,2.11-1.7,4.14-1.71,6.25,0,24.03,19.53,20.83,48.51,2.64,64.33-.71.62-1.24,1.81-1.28,2.75-.15,3.44-.06,6.89-.06,10.85,1.44-1.7,2.51-3.07,3.68-4.33,4.11-4.42,9.19-7.24,14.73-9.56,5.22-2.18,10.29-4.8,15.18-7.63,2.3-1.33,4.12-3.54,5.99-5.51,1.28-1.34,2.65-2.17,4.48-1.79,1.82.38,3.03,1.55,3.43,3.38,2.66,12.25,2.91,24.43-2.33,36.08-5.71,12.7-16.05,19.59-29.61,21.56-5.01.73-10.15.53-15.56.78,0,.37,0,1.08,0,1.79,0,6.28.01,12.57,0,18.85,0,3.19-1.79,5.25-4.45,5.24-2.64-.01-4.41-2.09-4.41-5.28-.02-6.93,0-13.87,0-20.3ZM244.48,192.53c-5.91,2.82-11.63,6.15-17.75,8.34-12.11,4.34-18,13.44-20.93,25.19-.08.3.03.65.07,1.2.92-.48,1.64-.82,2.33-1.22,6.27-3.66,11.51-8.51,16.19-13.99,2.03-2.38,4.53-2.79,6.6-1.15,2.08,1.66,2.32,4.55.14,6.83-3.56,3.74-7.35,7.25-11.06,10.85-.49.48-1.04.9-2.01,1.73,1.28-.18,1.93-.23,2.57-.37,18.53-3.91,25.81-19.85,23.85-37.42ZM181.08,230.05c-3.95-3.95-8.04-7.88-11.91-12.03-.96-1.02-1.57-2.7-1.66-4.12-.12-1.82,1.13-3.14,2.93-3.72,2.11-.68,3.74.12,5.09,1.72,4.7,5.57,10.01,10.45,16.33,14.15.71.41,1.47.74,2.36,1.19-.86-10.94-9.33-21.92-19.79-25.82-6.32-2.36-12.42-5.11-17.93-9.04-.25-.18-.6-.23-.95-.36-2.27,20.91,8.13,36.15,25.53,38.03ZM200.03,138.1c-12.68,9.74-15.21,32.92-4.45,43.12,0-4.76-.03-9.31,0-13.85.02-2.96,1.95-5.01,4.52-4.94,2.51.06,4.3,2.06,4.33,4.91.04,4.06,0,8.13.02,12.19,0,.52.11,1.03.19,1.78,9.43-12.21,9.82-30.25-4.62-43.21Z"/>
  <path class="cls-1" d="M197.94,106.74c45.33.23,82.81,29.94,92.85,71.45.96,3.98-1.27,6.93-4.85,6.34-2.43-.4-3.31-2.2-3.82-4.34-2.08-8.77-5.44-17.03-10.35-24.58-14.79-22.77-35.53-36.42-62.64-39.45-43.39-4.86-84.34,26.17-92.17,69.11-6.91,37.91,13.48,73.57,45.35,89.92,51.18,26.25,108.77-6.77,119.88-55.95.1-.43.21-.86.34-1.28.77-2.46,2.92-3.78,5.29-3.26,2.31.51,3.78,2.73,3.28,5.25-1.45,7.36-3.84,14.44-7.34,21.05-15.54,29.28-39.69,46.94-72.54,51.49-26.17,3.62-49.64-4-69.97-20.69-17.89-14.69-29.24-33.49-33.19-56.43-3.67-21.32-.03-41.53,10.7-60.27,13.04-22.78,32.31-37.87,57.61-45.1,7.93-2.26,16.05-3.31,21.57-3.24Z"/>
  <path class="cls-1" d="M293.26,200.03c-.01,2.43-1.93,4.39-4.31,4.41-2.39.02-4.52-2.16-4.48-4.56.04-2.36,2.13-4.33,4.49-4.25,2.47.08,4.32,1.97,4.31,4.4Z"/>
</svg>