<?xml version="1.0" encoding="UTF-8"?>
<svg id="Capa_1" xmlns="http://www.w3.org/2000/svg" viewBox="0 0 400 400">
  <defs>
    <style>
      .cls-1 {
        fill: #53706a;
      }
    </style>
  </defs>
  <g>
    <path class="cls-1" d="M348.08,311.37c-1.16,3.89-3.6,6.89-6.44,9.72-5.66,5.64-11.13,11.47-16.74,17.15-6.4,6.49-14.38,6.58-20.94.24-17.85-17.27-35.65-34.58-53.53-51.83-4.97-4.8-6.52-10.22-3.86-16.73.25-.62.13-1.8-.31-2.23-7.88-7.76-15.84-15.44-23.23-22.6-8.33,4.58-16.01,9.62-24.32,13.24-62.03,26.98-133.59-11.69-145.14-78.22-.62-3.58-1.11-7.19-1.66-10.79,0-5,0-10.01,0-15.01.94-5.48,1.63-11.01,2.86-16.42,9.19-40.56,43.01-72.45,84.16-79.5,54.35-9.32,106.09,23.63,120.1,76.88,7.51,28.53,3.29,55.65-11.75,81.06-.44.74-.91,1.47-1.55,2.52,8.51,8.25,17.05,16.53,25.63,24.84,7.5-3.99,13.56-2.06,19.33,3.62,16.67,16.42,33.53,32.64,50.4,48.85,3.03,2.91,5.7,5.94,6.99,10v5.2ZM157.14,257.72c52.98.06,96.01-42.78,96.12-95.68.11-52.94-43.03-96.08-96.07-96.06-52.89.02-96,43.06-96.01,95.87-.01,52.83,43.01,95.81,95.96,95.87ZM314.48,334.37c1.43-.97,2.83-1.63,3.85-2.67,6.16-6.23,12.26-12.53,18.34-18.83,2.99-3.1,2.97-5.14-.09-8.11-17.83-17.3-35.68-34.59-53.53-51.86-3.07-2.97-5.12-2.94-8.12.13-6.13,6.26-12.23,12.55-18.33,18.84-2.79,2.88-2.79,5.14.08,7.92,17.97,17.43,35.96,34.85,53.98,52.23.98.94,2.36,1.47,3.82,2.35ZM264.89,250.31c-8.45-8.18-16.48-15.96-24.47-23.7-3.73,4.08-7.22,7.91-10.87,11.91,7.93,7.67,15.9,15.4,23.37,22.63,4.01-3.63,7.85-7.11,11.97-10.84Z"/>
    <path class="cls-1" d="M157.26,245.91c-46.24.07-83.92-37.49-84.14-83.87-.22-46.3,37.52-84.06,84.09-84.13,46.32-.07,83.94,37.36,84.21,83.79.27,46.12-37.72,84.14-84.15,84.21ZM232.16,161.9c.05-41.14-33.5-74.65-74.82-74.75-41.29-.1-74.81,33.24-74.96,74.55-.15,41.25,33.67,75.1,74.9,74.98,41.3-.12,74.82-33.6,74.88-74.78Z"/>
  </g>
  <path class="cls-1" d="M164.06,142.04c8.85-6.56,19.53-9.05,30.57-10.47,1.78-.23,3.22.38,3.95,2.04,4.42,9.98,7.78,20.2,6.81,31.35-1.04,11.89-7.33,20.38-17.27,26.45-7.27,4.45-15.33,6.76-23.5,8.9-4.08,1.07-7.74.15-11.53-.72-10.33-2.37-20.24-5.77-28.88-12.14-11.73-8.65-16.75-20.38-15.86-34.82.61-9.86,3.65-19.05,7.53-28.02.72-1.66,1.92-2.59,3.73-2.4,12.02,1.28,23.72,3.74,33.88,10.72,3.73,2.56,6.9,5.91,10.56,9.11ZM159.95,189.15c2.61-8.95,4.31-17.42,3.58-26.25-.94-11.33-6.21-19.94-16.06-25.65-8-4.64-16.81-6.61-26.47-7.88-1.64,5.68-3.64,11.29-4.84,17.06-2.22,10.65-1.33,20.94,6.02,29.66,8.18,9.71,19.56,13.49,31.7,16.61-.57-1.02-.91-1.65-1.27-2.28-6.79-11.76-13.58-23.51-20.36-35.27-.44-.75-.92-1.5-1.22-2.31-.65-1.73-.13-3.18,1.4-4.16,1.56-.99,3.09-.7,4.34.59.54.56.91,1.31,1.31,2,3.56,6.16,7.11,12.33,10.67,18.49,3.63,6.28,7.26,12.56,11.21,19.39ZM166.66,192.6c7.55-1.97,14.89-4.52,21.22-9.38,6.25-4.79,9.91-11.04,10.63-18.96.7-7.65-1.25-14.82-3.82-21.89-1.3-3.59-1.35-3.65-5.15-2.97-7.48,1.34-14.66,3.49-20.95,7.98-.94.67-1.55,1.2-.98,2.62,3.19,7.88,3.64,16.12,2.49,24.41-.83,6.01-2.24,11.95-3.45,18.19Z"/>
</svg>