<?xml version="1.0" encoding="UTF-8"?>
<svg id="Capa_1" xmlns="http://www.w3.org/2000/svg" viewBox="0 0 400 400">
  <defs>
    <style>
      .cls-1 {
        fill: #53706a;
      }
    </style>
  </defs>
  <g>
    <path class="cls-1" d="M222.71,93.56c4.75-4.66,9.45-8.76,13.48-13.44,2.16-2.51,3.26-5.97,4.66-9.08,5.22-11.65,19.38-16.01,29.82-9.04,6.48,4.32,9.62,10.49,9.14,18.27-.49,7.91-4.53,13.6-11.57,17.15-3.05,1.54-6.67,2.38-9.15,4.54-4.87,4.23-9.12,9.17-13.88,14.08,3.11,3.07,6.38,6.25,9.6,9.49,5.27,5.31,5.27,11.31.04,16.63-2.41,2.45-4.81,4.91-7.31,7.27-4.63,4.39-10.84,4.41-15.38-.1-14.35-14.27-28.67-28.58-42.93-42.93-4.46-4.49-4.39-10.77.02-15.38,2.5-2.62,5.08-5.18,7.69-7.7,4.62-4.45,11.07-4.46,15.66.01,3.41,3.32,6.71,6.77,10.12,10.22ZM253.2,133.87c-.76-1.36-1.21-2.79-2.15-3.73-14.13-14.22-28.3-28.4-42.51-42.55-2.47-2.45-5.05-2.38-7.55.03-2.48,2.38-4.91,4.82-7.29,7.29-2.44,2.53-2.54,5.09-.1,7.55,14.14,14.21,28.33,28.38,42.54,42.52,2.48,2.47,5,2.42,7.57-.02,2.56-2.43,5.08-4.92,7.47-7.51.85-.92,1.28-2.24,2.03-3.59ZM227.49,97.31c4.68,4.69,9.16,9.19,13.69,13.74.08-.07.39-.29.65-.55,7.56-7.45,14.27-16.02,25.17-19.07.09-.02.16-.11.24-.16,5.37-3.31,7.96-9.79,6.34-15.85-1.66-6.21-6.92-10.49-13.23-10.77-6.55-.29-11.91,3.03-14.35,9.63-2.11,5.71-5.35,10.44-9.8,14.5-3.02,2.76-5.85,5.73-8.71,8.54Z"/>
    <path class="cls-1" d="M239.85,153.89c-3.03,0-6.05-1.24-8.53-3.71-14.62-14.53-29.06-28.97-42.94-42.94-4.89-4.92-4.89-11.93,0-17.04,2.36-2.47,4.89-5,7.73-7.73,5.12-4.93,12.24-4.92,17.32.02,2.37,2.31,4.73,4.72,7.01,7.05.76.78,1.53,1.57,2.3,2.35,1.13-1.1,2.26-2.17,3.38-3.23,3.29-3.12,6.39-6.06,9.18-9.3,1.54-1.78,2.55-4.21,3.52-6.56.31-.75.62-1.5.95-2.23,2.69-6,7.8-10.46,14.02-12.25,5.99-1.73,12.39-.74,17.55,2.71,6.92,4.62,10.17,11.13,9.67,19.34-.51,8.2-4.62,14.3-12.22,18.14-1.09.55-2.25,1.02-3.37,1.46-2.09.84-4.06,1.62-5.54,2.91-3.38,2.94-6.43,6.2-9.67,9.65-1.09,1.16-2.19,2.34-3.31,3.51.69.68,1.39,1.37,2.09,2.06,2.19,2.15,4.45,4.37,6.67,6.61,5.76,5.8,5.77,12.48.04,18.31l-.39.4c-2.25,2.29-4.57,4.65-6.95,6.9-2.53,2.4-5.53,3.59-8.51,3.59ZM204.77,81.2c-2.47,0-4.94,1-7.01,2.99-2.81,2.71-5.32,5.21-7.66,7.66-4,4.19-4.02,9.71-.03,13.72,13.87,13.96,28.31,28.4,42.93,42.93,4.03,4.01,9.54,4.04,13.72.08,2.34-2.22,4.65-4.57,6.89-6.85l.39-.4c4.75-4.83,4.74-10.15-.03-14.96-2.21-2.23-4.47-4.45-6.65-6.59-.99-.97-1.97-1.94-2.94-2.89l-.84-.83.82-.85c1.4-1.45,2.76-2.9,4.11-4.33,3.28-3.49,6.37-6.79,9.84-9.81,1.78-1.55,4.04-2.45,6.22-3.33,1.07-.43,2.18-.87,3.18-1.38,6.79-3.43,10.46-8.86,10.91-16.16.45-7.3-2.45-13.09-8.61-17.21-4.58-3.06-10.25-3.93-15.57-2.4-5.54,1.6-10.1,5.58-12.5,10.94-.32.71-.62,1.44-.92,2.17-1.05,2.52-2.13,5.13-3.92,7.2-2.87,3.33-6.02,6.32-9.35,9.48-1.39,1.31-2.79,2.65-4.2,4.03l-.85.83-.83-.84c-1.06-1.07-2.1-2.14-3.14-3.2-2.27-2.32-4.62-4.72-6.96-7-2.05-2-4.52-2.99-6.99-2.99ZM239.86,148c-1.56,0-3.11-.72-4.56-2.17-14.5-14.43-28.81-28.73-42.54-42.53-2.88-2.9-2.85-6.17.08-9.22,2.42-2.51,4.89-4.97,7.32-7.32,2.98-2.87,6.34-2.88,9.22-.02,14.71,14.64,29.01,28.95,42.52,42.55.77.78,1.25,1.77,1.71,2.73.2.41.4.84.64,1.26l.32.58-.32.58c-.23.42-.43.84-.62,1.23-.45.94-.88,1.83-1.57,2.59-2.17,2.35-4.56,4.76-7.53,7.57-1.52,1.44-3.1,2.17-4.67,2.17ZM204.81,86.97c-.97,0-1.95.51-3,1.52-2.41,2.33-4.86,4.77-7.26,7.26-2.03,2.1-2.06,3.92-.11,5.88,13.73,13.79,28.04,28.09,42.53,42.52,2.01,2,3.78,1.99,5.91-.04,2.93-2.78,5.28-5.14,7.42-7.45.45-.49.79-1.19,1.18-2,.12-.25.25-.51.38-.77-.14-.27-.27-.55-.4-.82-.41-.85-.76-1.58-1.25-2.08-13.5-13.6-27.8-27.91-42.51-42.54-.99-.98-1.93-1.47-2.88-1.47ZM241.16,112.62l-.82-.73-14.54-14.58.85-.84c.87-.86,1.74-1.74,2.62-2.62,1.97-1.98,4.01-4.03,6.12-5.96,4.37-3.98,7.47-8.57,9.48-14.03,2.56-6.94,8.22-10.74,15.52-10.4,6.78.3,12.54,4.99,14.33,11.65,1.75,6.54-1.07,13.6-6.86,17.17-.06.05-.25.21-.54.29-8.75,2.45-14.63,8.51-20.86,14.92-1.23,1.27-2.51,2.59-3.79,3.85-.26.26-.53.47-.68.58l-.84.69ZM229.18,97.32l12.06,12.1c1.19-1.18,2.37-2.4,3.52-3.58,6.14-6.32,12.48-12.85,21.75-15.51.04-.03.07-.05.11-.07,4.9-3.02,7.29-9,5.81-14.53-1.54-5.75-6.3-9.63-12.13-9.89-6.2-.29-11,2.95-13.18,8.85-2.15,5.82-5.46,10.72-10.11,14.96-2.07,1.89-4.09,3.92-6.04,5.88-.6.6-1.19,1.2-1.79,1.79Z"/>
  </g>
  <g>
    <path class="cls-1" d="M294.8,280.87c0-14.13.09-28.25-.02-42.38-.17-19.97-12.83-35.16-32.17-38.76-1.59-.3-3.22-.35-4.84-.48-2.02-.17-3.7-.87-3.53-3.21.17-2.29,1.87-2.82,3.93-2.75,17.66.59,33.95,12.31,39.71,29.26,1.72,5.06,2.71,10.61,2.76,15.95.26,29.4.14,58.8.12,88.2,0,9.12-5.53,14.63-14.64,14.64-28.83.01-57.66.02-86.49,0-9.03,0-14.49-5.44-14.53-14.39-.02-5.06.04-10.12-.02-15.18-.02-2.06.53-3.81,2.79-3.88,2.44-.08,3.09,1.7,3.06,3.9-.06,5.06-.05,10.12,0,15.18.04,5.44,2.88,8.39,8.27,8.39,29.12.04,58.23.04,87.35,0,5.55,0,8.23-2.85,8.25-8.66.04-15.27.01-30.54.01-45.82Z"/>
    <path class="cls-1" d="M242.32,342.53c-14.24,0-28.47,0-42.71-.01-9.66,0-15.68-5.97-15.72-15.58,0-2,0-4.01,0-6.02,0-3,.01-6.1-.02-9.15-.05-4.32,2.45-5.04,3.95-5.09,1.25-.04,2.26.31,3,1.04.89.87,1.31,2.2,1.29,4.07-.05,4.58-.05,9.39,0,15.15.04,4.85,2.35,7.21,7.08,7.21,28.6.03,57.99.04,87.35,0,4.87,0,7.04-2.31,7.06-7.47.03-11.14.02-22.29.02-33.43v-12.38c0-4.38,0-8.76.01-13.14.02-9.58.04-19.49-.04-29.23-.16-19.34-12.41-34.1-31.2-37.6-1.12-.21-2.27-.29-3.48-.37-.41-.03-.82-.06-1.23-.09-4.28-.35-4.73-2.96-4.62-4.49.14-1.83,1.14-4,5.16-3.85,18.5.62,34.89,12.7,40.79,30.07,1.8,5.29,2.77,10.94,2.82,16.32.21,23.31.17,47,.14,69.92,0,6.1-.02,12.19-.02,18.29,0,9.76-6.07,15.82-15.83,15.83-14.59,0-29.19.01-43.79.01ZM188.01,309.06s-.07,0-.11,0c-.66.02-1.67.05-1.64,2.68.04,3.06.03,6.18.02,9.18,0,2,0,4,0,6,.03,8.26,5.02,13.2,13.34,13.2,28.83.02,57.66.02,86.49,0,8.41,0,13.44-5.03,13.45-13.45,0-6.1.01-12.2.02-18.29.03-22.91.07-46.6-.14-69.89-.05-5.14-.98-10.52-2.69-15.58-5.5-16.17-21.38-27.88-38.62-28.45-2.37-.08-2.63.77-2.7,1.65-.07.91.07,1.74,2.44,1.93.4.03.8.06,1.2.09,1.23.09,2.5.17,3.75.41,19.96,3.72,32.97,19.39,33.15,39.93.08,9.75.06,19.67.04,29.26,0,4.38-.02,8.76-.02,13.14v12.38c.01,11.15.02,22.29-.01,33.44-.02,6.44-3.28,9.84-9.44,9.85-29.36.03-58.75.03-87.35,0-6.05,0-9.41-3.41-9.46-9.58-.04-5.78-.04-10.61,0-15.2.01-1.15-.19-1.96-.58-2.34-.09-.09-.37-.36-1.15-.36Z"/>
  </g>
  <g>
    <path class="cls-1" d="M116.8,230.68c-4.4-.23-6.77-1.63-8.1-4.49-1.33-2.86-1.21-5.93,1.07-7.98,3.52-3.18,4.97-7.21,6.47-11.45,2.22-6.3,6.01-11.67,10.72-16.38,21.93-21.93,43.86-43.86,65.79-65.78.47-.47.95-1.23,1.49-1.28,1.2-.11,2.85-.3,3.54.36.68.66.71,2.38.44,3.5-.22.89-1.28,1.6-2.02,2.34-21.12,21.12-42.19,42.29-63.4,63.32-6.18,6.13-10.6,13.09-13.02,21.49-.68,2.37-3.05,4.22-4.43,6.45-.59.96-.64,2.25-.94,3.4,1.14-.26,2.7-.15,3.35-.86,2.61-2.84,5.68-4.53,9.42-5.56,6.86-1.88,12.54-5.85,17.55-10.87,21.5-21.55,43.04-43.06,64.58-64.58,1.59-1.59,3.27-3.95,5.69-1.58,2.43,2.39.09,4.1-1.5,5.69-21.31,21.33-42.67,42.61-63.95,63.99-6.54,6.57-14.01,11.34-23,13.82-1.76.49-3.11,2.36-4.75,3.45-1.91,1.27-3.93,2.38-4.99,3.01Z"/>
    <path class="cls-1" d="M117.1,231.89l-.36-.02c-4.75-.25-7.56-1.85-9.12-5.18-1.68-3.59-1.17-7.09,1.35-9.37,3.34-3.02,4.7-6.88,6.14-10.97,2.13-6.05,5.73-11.55,11.01-16.83,21.93-21.93,43.86-43.86,65.79-65.78.11-.11.21-.23.32-.35.46-.53,1.03-1.19,1.9-1.27h.15c1.46-.15,3.28-.32,4.32.69,1.22,1.17,1.04,3.55.77,4.64-.25,1.03-1.06,1.75-1.78,2.39-.19.17-.39.34-.56.51-5.34,5.34-10.68,10.68-16.01,16.03-15.51,15.53-31.54,31.58-47.39,47.3-6.28,6.23-10.44,13.09-12.71,20.98-.49,1.71-1.67,3.11-2.81,4.46-.66.78-1.27,1.51-1.75,2.28-.22.35-.34.83-.45,1.35.41-.06.86-.14.98-.25,2.65-2.89,5.82-4.76,9.98-5.9,5.99-1.64,11.56-5.1,17.02-10.57,19.48-19.52,39.31-39.33,58.49-58.49l6.09-6.08c.17-.17.34-.34.51-.52,1.07-1.12,2.28-2.38,3.95-2.41.99-.02,1.98.44,2.91,1.35.94.92,1.41,1.9,1.41,2.91,0,1.68-1.28,2.91-2.41,3.99-.17.16-.33.32-.49.48-7.17,7.17-14.34,14.34-21.52,21.51-13.92,13.91-28.31,28.29-42.43,42.47-7.05,7.09-14.75,11.71-23.53,14.13-.83.23-1.65.97-2.52,1.75-.59.54-1.2,1.09-1.89,1.54-1.44.96-2.95,1.82-4.04,2.46-.39.22-.72.42-1,.58l-.31.19ZM194.47,124.49c-.12.1-.32.33-.44.47-.15.17-.29.33-.43.47-21.93,21.92-43.86,43.85-65.79,65.78-5.02,5.02-8.43,10.23-10.44,15.94-1.48,4.19-3,8.52-6.79,11.94-2.45,2.21-1.37,5.35-.79,6.59,1.13,2.42,3.09,3.53,6.73,3.78.21-.12.45-.26.71-.41,1.07-.62,2.54-1.46,3.92-2.38.54-.36,1.06-.83,1.61-1.33,1.03-.93,2.1-1.9,3.48-2.28,8.37-2.31,15.72-6.73,22.48-13.51,14.12-14.19,28.51-28.57,42.43-42.48,7.17-7.17,14.35-14.34,21.51-21.51.17-.17.34-.34.52-.51.78-.75,1.67-1.61,1.68-2.29,0-.34-.23-.75-.69-1.2-.46-.45-.88-.69-1.2-.67-.68.01-1.52.89-2.27,1.67-.18.19-.36.38-.54.56l-6.09,6.08c-19.18,19.16-39.01,38.98-58.49,58.49-5.76,5.77-11.67,9.43-18.07,11.18-3.7,1.01-6.52,2.67-8.85,5.21-.75.81-1.91.95-2.93,1.06-.38.04-.73.08-1.03.15l-1.91.44.49-1.9c.08-.33.15-.67.21-1.02.16-.87.34-1.86.87-2.71.57-.92,1.27-1.76,1.96-2.56,1.02-1.21,1.99-2.36,2.34-3.59,2.39-8.29,6.74-15.49,13.32-22.01,15.84-15.71,31.88-31.76,47.38-47.29,5.34-5.34,10.67-10.69,16.01-16.03.2-.2.43-.41.66-.61.41-.36.97-.86,1.04-1.17.24-.97.1-2.13-.11-2.36-.33-.24-1.87-.1-2.44-.04h-.03Z"/>
  </g>
  <g>
    <path class="cls-1" d="M242.69,320.53c-10.68,0-21.37,0-32.05,0-4.19,0-4.85-.67-4.85-4.79,0-15.07,0-30.14,0-45.21,0-3.94.75-4.69,4.65-4.69,21.65,0,43.3,0,64.96,0,3.81,0,4.56.7,4.56,4.48.02,15.16.02,30.33,0,45.49,0,4.02-.68,4.7-4.65,4.71-10.87.02-21.75,0-32.62,0ZM273.87,271.88h-62.03v42.59h62.03v-42.59Z"/>
    <path class="cls-1" d="M261.13,321.72c-2.98,0-5.96,0-8.94,0h-9.5v-1.19,1.19h-8.78c-7.75,0-15.51,0-23.27,0-4.85,0-6.04-1.18-6.04-5.98,0-15.07,0-30.14,0-45.21,0-4.61,1.26-5.88,5.84-5.88,21.65,0,43.31,0,64.96,0,4.46,0,5.75,1.27,5.75,5.67.02,15.16.02,30.33,0,45.49,0,4.68-1.2,5.89-5.84,5.9-4.73,0-9.45,0-14.18,0ZM242.69,319.34h9.5c7.71,0,15.41,0,23.12,0,3.33,0,3.46-.14,3.46-3.52.01-15.16.02-30.33,0-45.49,0-3.1-.19-3.29-3.37-3.29-21.65,0-43.3,0-64.96,0-3.23,0-3.45.23-3.45,3.5,0,15.07,0,30.14,0,45.21,0,3.46.14,3.59,3.66,3.59,7.76,0,15.51,0,23.27,0h8.78ZM275.06,315.66h-64.41v-44.97h64.41v44.97ZM213.03,313.28h59.65v-40.2h-59.65v40.2Z"/>
  </g>
  <g>
    <path class="cls-1" d="M242.81,187.39c-5.34,0-10.69.03-16.03,0-5.62-.04-8.89-3.28-8.96-8.87-.04-2.86-.07-5.73.02-8.59.15-4.9,3.45-8.25,8.38-8.28,11.17-.08,22.33-.08,33.5,0,4.57.03,7.79,3,8.14,7.57.26,3.41.26,6.87.04,10.29-.31,4.86-3.58,7.81-8.46,7.86-5.53.06-11.07.01-16.61.02ZM242.81,181.56c5.25,0,10.5-.04,15.74.02,2.35.03,3.58-.84,3.49-3.35-.1-2.57-.06-5.15-.01-7.73.04-2.03-.91-3.03-2.91-3.04-10.78-.01-21.56,0-32.34,0-2.14,0-3.13,1.09-3.12,3.19.02,2.38.08,4.77-.02,7.15-.11,2.66,1,3.84,3.71,3.79,5.15-.09,10.3-.03,15.46-.03Z"/>
    <path class="cls-1" d="M252.85,188.6c-1.66,0-3.32,0-4.95,0-1.7,0-3.36,0-5.09,0v-1.19,1.19h-4.81c-3.75.01-7.49.02-11.23,0-6.27-.04-10.06-3.8-10.15-10.04-.04-3.07-.07-5.84.02-8.64.17-5.61,4.02-9.4,9.56-9.44,11.39-.08,22.67-.08,33.51,0,5.18.04,8.92,3.52,9.32,8.67.26,3.37.27,6.89.04,10.46-.35,5.47-4.05,8.91-9.64,8.98-2.19.03-4.39.03-6.58.03ZM242.94,186.2c1.65,0,3.31,0,4.96,0,3.77,0,7.67.02,11.5-.02,4.29-.05,7.02-2.57,7.29-6.75.22-3.46.21-6.87-.04-10.12-.3-3.96-2.97-6.44-6.96-6.47-10.83-.08-22.1-.08-33.48,0-4.23.03-7.06,2.83-7.19,7.13-.08,2.75-.06,5.49-.01,8.53.07,4.93,2.83,7.66,7.78,7.69,3.74.03,7.47.02,11.21.01h4.81s.09,0,.13,0ZM227.19,182.78c-1.61,0-2.79-.4-3.6-1.23-.84-.86-1.21-2.1-1.14-3.8.08-1.83.06-3.71.03-5.53l-.02-1.57c-.01-1.41.37-2.5,1.12-3.26.74-.75,1.82-1.13,3.18-1.13h12.94c6.47,0,12.94,0,19.41,0,1.31,0,2.33.37,3.05,1.1.72.74,1.08,1.8,1.05,3.15-.05,2.46-.09,5.08.01,7.66.06,1.5-.29,2.61-1.06,3.4-.79.82-2.01,1.19-3.63,1.19-3.72-.04-7.51-.03-11.18-.02-1.52,0-3.03,0-4.55,0h0c-1.53,0-3.05,0-4.58-.01-3.56-.01-7.24-.03-10.85.04-.06,0-.12,0-.18,0ZM226.77,168.64c-.71,0-1.21.14-1.49.43-.29.29-.44.82-.43,1.57l.02,1.56c.02,1.85.04,3.76-.04,5.65-.04.99.11,1.68.46,2.03.35.36,1.04.53,2.04.51,3.64-.07,7.33-.05,10.91-.04,1.52,0,3.05,0,4.57.01h0c1.52,0,3.03,0,4.55,0,3.67,0,7.47-.02,11.21.02.95.01,1.59-.15,1.9-.46.28-.29.41-.85.38-1.65-.1-2.65-.06-5.3-.01-7.79,0-.48-.05-1.11-.37-1.44-.25-.25-.7-.38-1.35-.38-6.47,0-12.94,0-19.41,0h-12.94s0,0,0,0Z"/>
  </g>
  <g>
    <path class="cls-1" d="M184.69,248.37c.43-6.46.15-13.06,1.42-19.35,4.03-20,20.49-34.05,40.92-35.68,2.16-.17,4.27-.03,4.49,2.68.22,2.78-1.94,3.09-4.06,3.27-18.05,1.52-32.04,13.63-35.72,31.07-.57,2.69-.76,5.49-.8,8.24-.1,7.92-.06,15.85-.02,23.77.01,2.09-.62,3.75-2.9,3.77-2.28.02-2.98-1.6-2.95-3.71.05-4.68.02-9.36.02-14.03-.13,0-.27-.02-.4-.03Z"/>
    <path class="cls-1" d="M187.98,267.33c-1.19,0-2.15-.36-2.86-1.07-.84-.84-1.26-2.13-1.24-3.84.04-3.31.03-6.68.02-9.95,0-.99,0-1.97,0-2.96l-.48-.03.08-1.19c.13-2.01.2-4.07.26-6.07.14-4.44.29-9.02,1.18-13.44,4.08-20.23,20.95-34.95,42-36.64,1.13-.09,2.43-.12,3.53.35.93.4,2.07,1.31,2.23,3.42.32,4.09-3.37,4.4-5.14,4.55-17.5,1.47-31.1,13.3-34.65,30.13-.48,2.28-.73,4.9-.77,8.01-.1,7.87-.06,15.88-.02,23.62v.13c.02,4.29-2.55,4.95-4.08,4.97-.02,0-.04,0-.05,0ZM185.95,247.25l.33.02v1.12c0,1.36,0,2.71,0,4.07,0,3.27.01,6.65-.02,9.98-.01,1.03.18,1.77.54,2.13.09.09.38.38,1.21.37.69,0,1.73-.02,1.72-2.57v-.13c-.04-7.76-.08-15.77.02-23.67.04-3.27.31-6.04.83-8.47,3.77-17.89,18.21-30.45,36.79-32.01,2.68-.22,3.07-.67,2.97-1.99-.08-.99-.45-1.27-.8-1.42-.63-.27-1.62-.23-2.41-.17-19.97,1.6-35.99,15.56-39.85,34.73-.85,4.22-.99,8.71-1.13,13.04-.05,1.63-.11,3.3-.2,4.96Z"/>
  </g>
  <g>
    <path class="cls-1" d="M126.81,261.91c-.28,5.57-2.92,9.88-8.21,12.19-5.27,2.31-10.37,1.55-14.65-2.35-4.14-3.78-6.11-8.74-3.71-13.96,2.96-6.46,6.77-12.54,10.39-18.67,1.11-1.88,3.27-2.16,4.58-.38,4.77,6.45,9.22,13.11,11.39,20.98.17.63.13,1.33.2,2.19ZM113.61,246.12c-.33-.03-.67-.07-1-.1-2.25,4.33-4.69,8.58-6.68,13.03-1.5,3.34-.26,6.82,2.55,8.86,2.75,2,6.6,1.95,9.31-.1,2.78-2.11,3.97-5.56,2.46-8.87-1.99-4.38-4.4-8.56-6.64-12.82Z"/>
    <path class="cls-1" d="M112.8,276.58c-3.48,0-6.79-1.33-9.66-3.94-4.94-4.51-6.4-10.1-3.99-15.34,2.48-5.41,5.58-10.61,8.58-15.64.62-1.05,1.25-2.09,1.87-3.14.77-1.3,1.97-2.09,3.29-2.15,1.26-.07,2.45.54,3.28,1.67,4.39,5.94,9.27,12.98,11.58,21.37.15.55.17,1.08.2,1.64.01.24.02.49.04.76v.08s0,.08,0,.08c-.32,6.24-3.4,10.81-8.92,13.23-2.12.92-4.22,1.38-6.27,1.38ZM113.07,238.74s-.04,0-.06,0c-.51.03-1,.39-1.36.99-.62,1.05-1.25,2.1-1.87,3.15-2.97,4.97-6.04,10.12-8.46,15.41-2.66,5.8,1.01,10.38,3.43,12.59,3.87,3.53,8.49,4.27,13.37,2.14,4.68-2.05,7.2-5.78,7.5-11.09-.02-.28-.03-.54-.04-.78-.02-.46-.03-.82-.12-1.11-2.21-8-6.94-14.83-11.2-20.59-.24-.33-.64-.71-1.18-.71ZM113.06,270.58c-1.86,0-3.72-.57-5.28-1.7-3.42-2.48-4.6-6.62-2.94-10.31,1.41-3.15,3.06-6.23,4.66-9.21.69-1.29,1.38-2.58,2.06-3.88l.37-.72,2.45.24.3.57c.67,1.27,1.35,2.54,2.03,3.81,1.58,2.94,3.22,5.97,4.63,9.07,1.68,3.68.57,7.73-2.83,10.31-1.59,1.21-3.52,1.82-5.44,1.82ZM113.08,247.68c-.49.93-.99,1.87-1.49,2.8-1.58,2.94-3.21,5.99-4.59,9.06-1.2,2.67-.35,5.58,2.17,7.41,2.34,1.7,5.58,1.66,7.89-.09,2.47-1.88,3.3-4.79,2.1-7.42-1.38-3.03-3-6.03-4.56-8.93-.51-.94-1.02-1.88-1.52-2.83Z"/>
  </g>
  <g>
    <path class="cls-1" d="M190.89,280.1c0,1.62.05,3.23-.01,4.85-.07,1.8-1.07,2.86-2.87,2.86-1.79,0-2.85-1.03-2.88-2.85-.05-3.32-.25-6.68.13-9.96.12-1.03,1.8-2.45,2.9-2.6.78-.1,2.29,1.51,2.61,2.6.45,1.58.12,3.39.12,5.1,0,0,0,0,0,0Z"/>
    <path class="cls-1" d="M188,289c-2.43,0-4.03-1.58-4.07-4.02-.01-.65-.03-1.3-.04-1.95-.07-2.68-.13-5.45.18-8.17.19-1.64,2.37-3.44,3.93-3.65,1.65-.22,3.52,2.11,3.91,3.45.37,1.3.3,2.65.22,3.94-.02.36-.04.73-.05,1.09v.39c0,.49,0,.98.01,1.48.01,1.12.02,2.27-.02,3.41-.09,2.47-1.65,4.01-4.06,4.01h0ZM188.2,273.61c-.65.17-1.68,1.11-1.76,1.53-.29,2.55-.23,5.24-.16,7.83.02.66.03,1.31.04,1.97.02,1.16.54,1.67,1.68,1.67h0c1.14,0,1.64-.51,1.68-1.71.04-1.09.03-2.22.02-3.3,0-.1,0-.2,0-.31h-.01v-1.19c0-.53.03-1.08.06-1.62.07-1.15.13-2.24-.13-3.15-.18-.61-1.02-1.52-1.42-1.73ZM188.12,273.58h0Z"/>
  </g>
</svg>