<?xml version="1.0" encoding="UTF-8"?>
<svg id="Capa_1" xmlns="http://www.w3.org/2000/svg" viewBox="0 0 400 400">
  <defs>
    <style>
      .cls-1 {
        fill: #53706a;
      }
    </style>
  </defs>
  <path class="cls-1" d="M159.71,101.65c.38.41.71.86,1.13,1.22,22.02,18.6,38.59,40.98,47.69,68.56.1.29.25.56.4.89,26.83-13.57,55.23-17.62,85.09-15.03.29,3.8.74,7.42.82,11.04.52,22.91-2.78,45.16-12.1,66.27-13.99,31.67-38.09,51.27-71.58,59.51-16.87,4.15-34.03,4.9-51.29,3.75-1.61-.11-3.5-.79-4.7-1.84-16.58-14.49-30.9-30.82-40.29-50.98-12.39-26.6-12.89-53.64-2.21-80.84,9.53-24.28,24.93-44.36,44.84-61.08.52-.44.95-.97,1.43-1.46.26,0,.51,0,.77,0ZM283.39,176.82l-.9-.65c-.37.67-.61,1.47-1.12,1.99-32.21,32.25-64.45,64.46-96.65,96.72-3.66,3.67-7.11,7.54-10.65,11.33-.1.1-.06.34-.08.51,7.76.47,23.31-1.19,33.91-3.73,30.32-7.27,52.08-24.88,64.58-53.61,5.69-13.08,8.73-26.83,10.13-40.97.38-3.85.53-7.72.78-11.58ZM153.39,278.71V122.63c-13.58,14.36-24.36,30.06-30.97,48.44-5.39,14.98-7.24,30.32-4.38,46.07,4.46,24.57,18.03,43.93,35.36,61.57ZM165.18,278.73c8.71-8.72,16.27-17.8,22.42-27.99,14.79-24.49,18.52-50.33,9.34-77.69-5.68-16.94-15.17-31.65-26.81-45.05-1.52-1.75-3.12-3.43-4.95-5.44v156.17ZM208.46,233.99c21.59-21.57,43.77-43.75,65.9-65.86-.39,0-1.02-.05-1.64,0-6.56.63-13.15.99-19.65,1.96-13.75,2.06-26.86,6.22-39.2,12.74-1.71.9-2.12,1.84-1.78,3.72,1.89,10.62,1.92,21.29-.03,31.89-1.01,5.51-2.51,10.93-3.59,15.54Z"/>
</svg>