<?xml version="1.0" encoding="UTF-8"?>
<svg id="Capa_1" xmlns="http://www.w3.org/2000/svg" viewBox="0 0 400 400">
  <defs>
    <style>
      .cls-1 {
        fill: #53706a;
      }
    </style>
  </defs>
  <path class="cls-1" d="M199.95,308.33c-59.71-.13-108.39-48.66-108.3-107.97.09-60.19,48.75-109.03,108.29-108.69,60.19.35,108.71,48.82,108.42,108.32-.29,60.11-48.69,108.47-108.41,108.34ZM194.75,297.59v-61.02c-2.34,1.32-4.42,2.59-6.58,3.69-17.43,8.88-34.21,7.78-50.24-3.45-8.42-5.9-13.38-14.54-17.62-23.54-2.49-5.28,0-11.5,5.17-14.59,2.85-1.71,5.77-3.33,8.7-4.89,8.48-4.53,17.5-6.52,27.08-5.29,3.52.45,6.98,1.31,10.65,2.02-.04-.77-.06-1.62-.13-2.46-.61-8.09.95-15.75,4.35-23.1,3.76-8.14,9.99-14.28,16.55-20.02,4.53-3.97,11.41-3.3,15.86.96,2.69,2.58,5.35,5.21,7.83,7.98,5.57,6.21,9.4,13.39,10.76,21.63.8,4.88.88,9.87,1.3,14.9.38-.1,1.06-.24,1.72-.44,7.92-2.45,15.92-2.59,23.96-.79,8.04,1.8,15,5.98,21.71,10.48,4.82,3.24,6.04,9.85,3.3,15.13-1.31,2.53-2.82,4.96-4.27,7.42-13.69,23.32-41.25,30.61-64.65,17.12-1.56-.9-3.13-1.77-4.83-2.73v60.98c47.69-1.84,91.43-41.45,92.68-95.46,1.29-55.87-43.83-100.32-97.94-100.27-54.74.05-98.72,44.23-98.03,99.46.68,54.77,44.9,94.31,92.66,96.28ZM206.66,225.56c4.02,2.26,7.55,4.56,11.34,6.33,13.94,6.53,27.07,4.94,39.23-4.46,5.82-4.5,8.95-11.01,12.51-17.17.81-1.41.1-2.37-1.18-3.1-2.83-1.59-5.59-3.31-8.47-4.81-15.68-8.17-35.28-3.68-45.69,10.63-2.83,3.89-5.07,8.2-7.73,12.58ZM193.19,225.48c-2.5-4.06-4.64-8.07-7.28-11.71-8.14-11.24-19.26-16.25-33.12-15.3-8.33.57-15.11,4.88-22,8.97-1.24.74-1.19,1.7-.51,2.82,2.01,3.32,3.77,6.82,6.01,9.97,7.13,10.04,16.97,15.13,29.3,15.52,10.53.33,18.94-4.88,27.59-10.27ZM199.96,217.14c.62-.97,1.03-1.54,1.36-2.16,3.34-6.29,7.42-11.97,12.98-16.55,1.02-.84,1.91-2.14,2.28-3.4,2.66-8.97,1.84-17.68-2.18-26.14-3.08-6.48-8.4-11.08-13.37-15.95-.37-.36-1.96-.07-2.5.43-2.51,2.31-4.97,4.69-7.23,7.24-8.88,10.04-11.52,21.59-8,34.51.27.98.92,2.04,1.71,2.68,4.72,3.86,8.66,8.36,11.68,13.67,1.01,1.78,2.05,3.54,3.28,5.67Z"/>
</svg>