<?xml version="1.0" encoding="UTF-8"?>
<svg id="Capa_1" xmlns="http://www.w3.org/2000/svg" viewBox="0 0 400 400">
  <defs>
    <style>
      .cls-1 {
        fill: #53706a;
      }
    </style>
  </defs>
  <path class="cls-1" d="M253.6,303.17c-2.41-.51-4.85-.93-7.23-1.56-18.77-4.97-32.38-21.61-33.42-40.8-1.08-19.77,10.44-37.7,28.78-44.8,3.01-1.17,3.4-1.72,3.4-4.88,0-7.92,0-15.84,0-23.92-3.19-.28-6.09-1.34-7.69-4.1-1.06-1.83-1.83-4.1-1.86-6.19-.08-4.92,3.65-8.37,9.56-9.29v-1.94c0-14.98,0-29.95,0-44.93,0-3.66-.95-4.59-4.68-4.59-6.31,0-12.62,0-18.93,0h-2.17c0,3.11.01,6.05,0,8.98-.03,6.32-4.02,10.35-10.31,10.36-23.23.01-46.46.01-69.69,0-6.16,0-10.22-4.07-10.25-10.21-.02-2.95,0-5.89,0-9-.67-.05-1.25-.12-1.83-.12-6.58,0-13.16-.01-19.74,0-3.15,0-4.22,1.07-4.22,4.24,0,57.35,0,114.7,0,172.05,0,3.23,1.07,4.25,4.41,4.25,38.41,0,76.81,0,115.22,0,.54,0,1.08.02,1.61,0,1.86-.1,3.53.19,4.27,2.21.72,1.96-.55,3.11-1.81,4.24h-122.49c-4.77-1.78-7.67-4.89-7.67-10.29.02-57.61,0-115.23.02-172.84,0-6.28,4.05-10.29,10.35-10.3,6.85-.01,13.7-.03,20.54.02,1.23,0,1.91-.31,2.69-1.43,1.12-1.59,2.83-2.75,4.27-4.11.6-.56,1.34-1.06,1.71-1.75,1.92-3.55,4.79-5.6,8.87-5.61,19.27-.03,38.54-.05,57.81.04,1.61,0,3.3.58,4.79,1.24,2.39,1.06,3.15,3.78,4.84,5.41,1.72,1.65,4.29,2.5,5.37,4.88.52,1.15,1.23,1.33,2.33,1.32,6.85-.04,13.7-.02,20.54-.02,6.68,0,10.6,3.94,10.6,10.67,0,14.97,0,29.95,0,44.92,0,.78,0,1.55,0,2.44,1.01,0,1.74,0,2.47,0,5.71,0,11.42-.09,17.12.03,7.07.15,11.54,7.59,8.42,13.87-1.73,3.5-4.72,5.16-8.67,5.53,0,.71,0,1.37,0,2.03,0,7.25,0,14.5,0,21.76,0,3.33.33,3.74,3.47,5.04,14.16,5.83,23.28,16.15,27.33,30.91.63,2.31.97,4.71,1.44,7.07v8.06c-.13.58-.31,1.15-.38,1.74-2.24,18.46-16.33,34.08-34.45,38.16-1.95.44-3.91.81-5.86,1.21h-8.86ZM251.58,187.21v2.26c0,7.18,0,14.37,0,21.55,0,5.94-1.98,8.84-7.51,11-17.88,6.98-27.85,25.4-23.93,44.21,3.92,18.86,21.48,31.9,40.98,30.44,19.01-1.42,34.66-17.49,35.54-36.5.79-16.96-8.95-31.98-24.79-38.22-5.41-2.13-7.4-5.06-7.4-10.87,0-7.25,0-14.5,0-21.76v-2.12h-12.89ZM212.16,110.28c-2.86,5.28-7.12,5.99-11.97,5.95-17.44-.12-34.89-.12-52.33,0-4.75.03-8.79-.87-11.54-5.36-.42.91-.75,1.76-.77,2.62-.06,3.96-.05,7.92-.02,11.88.02,2.5,1.22,3.7,3.73,3.7,23.28.01,46.56.01,69.84,0,2.53,0,3.74-1.2,3.77-3.67.04-4.03.04-8.05-.02-12.08-.01-.8-.36-1.59-.71-3.05ZM174.24,103.28c-9.2,0-18.4,0-27.6,0-.6,0-1.22-.06-1.81.05-1.74.31-2.79,1.37-2.81,3.15-.01,1.79,1.03,2.86,2.76,3.19.58.11,1.2.05,1.81.05,18.4,0,36.8,0,55.2,0,.54,0,1.08.03,1.61-.03,1.78-.19,3.02-1.5,3.03-3.18.01-1.68-1.21-3.02-2.99-3.22-.6-.07-1.21-.03-1.81-.03-9.13,0-18.26,0-27.4,0ZM257.84,180.66c4.16,0,8.33.02,12.49,0,2.36-.01,3.81-1.28,3.8-3.23-.01-1.95-1.45-3.19-3.83-3.2-8.19-.02-16.38-.02-24.57,0-2.37,0-3.81,1.27-3.8,3.23,0,1.95,1.45,3.19,3.83,3.2,4.03.02,8.06,0,12.09,0Z"/>
  <path class="cls-1" d="M109.75,206.48c0-24.51,0-49.03,0-73.54,0-5.24,2.95-9.06,7.75-10.11.52-.11,1.06-.18,1.59-.19,1.93-.02,3.33,1.15,3.52,2.89.18,1.72-1,3.16-2.88,3.52-2.85.55-3.53,1.33-3.53,4.14,0,48.82,0,97.65,0,146.47,0,3.11,1.09,4.16,4.3,4.16,31.16,0,62.31,0,93.47,0,.6,0,1.21-.02,1.81,0,2.18.08,3.59,1.39,3.55,3.28-.04,1.82-1.4,3.06-3.48,3.15-.47.02-.94,0-1.41,0-31.22,0-62.45,0-93.67,0-7.26,0-11.02-3.78-11.02-11.06,0-24.24,0-48.49,0-72.73Z"/>
  <path class="cls-1" d="M174.05,181.38c-.73.78-1.38,1.77-2.28,2.38-2.13,1.45-4.25,3.08-6.62,3.97-3.13,1.19-6.22-.6-6.59-3.93-.31-2.85.31-5.81.58-8.71.07-.71.37-1.41.59-2.17-1.84-.63-3.6-1.21-5.35-1.83-.63-.22-1.24-.51-1.82-.84-2.25-1.28-4.12-2.89-4.1-5.75.02-2.85,1.84-4.57,4.17-5.68,2.22-1.06,4.59-1.81,6.97-2.73-.42-1.96-.98-4.02-1.28-6.11-.44-3.15-.47-6.37,2.68-8.25,3.1-1.85,5.85-.27,8.32,1.59,1.71,1.28,3.22,2.82,4.91,4.32,1.52-1.36,2.99-2.92,4.7-4.15,1.39-.99,2.98-1.87,4.62-2.3,3.05-.8,5.95.88,6.3,3.99.32,2.85-.26,5.81-.52,8.72-.07.77-.41,1.52-.62,2.27,1.98.67,3.86,1.18,5.62,1.96,1.33.58,2.65,1.35,3.73,2.32,2.66,2.4,2.76,6.05-.07,8.22-2.02,1.55-4.57,2.41-6.91,3.51-.7.33-1.51.43-2.27.63.48,2.24,1.06,4.3,1.34,6.41.4,2.99.43,6.05-2.44,7.99-2.87,1.94-5.63.57-8.06-1-1.99-1.29-3.64-3.1-5.59-4.82ZM174.18,167.76c1.67,0,3.56-1.65,3.61-3.17.05-1.45-1.9-3.27-3.51-3.27-1.67,0-3.56,1.65-3.61,3.17-.05,1.45,1.9,3.27,3.51,3.27ZM183.95,148.37l-.53-.41c-1.73,1.62-3.46,3.25-5.2,4.88.35.56.48,1.03.78,1.2.8.47,1.66,1.04,2.54,1.11.36.03.99-1.05,1.19-1.72.5-1.66.82-3.37,1.21-5.06ZM164.47,180.82c.18.11.35.22.53.32,1.74-1.65,3.49-3.3,5.2-4.93-.38-.61-.52-1.08-.82-1.25-.81-.45-1.67-.94-2.56-1.04-.31-.04-.91.97-1.09,1.58-.5,1.75-.85,3.54-1.26,5.32ZM170.71,153.28c-2.3-2.14-4.03-3.75-5.76-5.36-.17.12-.34.24-.51.35.56,2.31,1.12,4.62,1.85,7.6,1.6-.94,2.79-1.63,4.43-2.59ZM178.2,176.23c1.78,1.65,3.53,3.26,5.27,4.86.17-.13.34-.26.51-.39-.45-1.88-.84-3.78-1.38-5.63-.41-1.4-2.03-1.74-3.1-.69-.46.46-.76,1.07-1.29,1.85ZM192.54,164.87c0-.21.01-.43.02-.64-1.62-.53-3.21-1.15-4.86-1.55-.55-.13-1.67.15-1.78.48-.27.84-.27,1.86-.02,2.71.1.34,1.21.67,1.75.54,1.66-.39,3.27-1.01,4.9-1.54ZM155.95,164.16c0,.26,0,.51.01.77,1.77.54,3.51,1.16,5.31,1.58,1.6.38,1.81-1.11,1.81-1.99,0-.89-.27-2.35-1.85-1.95-1.78.44-3.52,1.06-5.27,1.59Z"/>
  <path class="cls-1" d="M177.43,251.59c8.26,0,16.52,0,24.78,0,3.16,0,4.23,1.07,4.24,4.22.01,5.84.01,11.69,0,17.53,0,2.89-1.14,4.03-4.02,4.04-16.65,0-33.31,0-49.96,0-2.9,0-4.02-1.13-4.03-4.02-.02-5.91-.02-11.82,0-17.73,0-2.9,1.13-4.03,4.02-4.03,8.33-.01,16.65,0,24.98,0ZM199.86,270.85v-12.65h-44.87v12.65h44.87Z"/>
  <path class="cls-1" d="M159.53,209.68c-8.6,0-17.19,0-25.79,0-.6,0-1.22.06-1.81-.05-1.73-.32-2.79-1.37-2.8-3.16-.01-1.78,1.03-2.86,2.76-3.19.58-.11,1.2-.05,1.81-.05,17.32,0,34.65,0,51.97,0,.6,0,1.22-.06,1.81.05,1.74.31,2.79,1.38,2.8,3.15.01,1.78-1.04,2.85-2.77,3.19-.58.11-1.2.05-1.81.05-8.73,0-17.46,0-26.19,0Z"/>
  <path class="cls-1" d="M180.66,248.36c-7.32,0-14.64.01-21.96,0-2.29,0-3.69-1.15-3.81-3.02-.13-1.95,1.34-3.39,3.61-3.41,4.9-.03,9.8-.01,14.71-.01,9.8,0,19.61,0,29.41,0,2.29,0,3.69,1.15,3.81,3.02.13,2.01-1.39,3.41-3.81,3.42-7.32.02-14.64,0-21.96,0Z"/>
  <path class="cls-1" d="M196.98,229.02c6.11,0,12.22,0,18.33,0,2.54,0,4.01,1.21,4.01,3.22,0,2.01-1.48,3.22-4.02,3.22-12.36,0-24.71,0-37.07,0-2.54,0-4.01-1.21-4.01-3.22,0-2.01,1.47-3.21,4.02-3.22,6.24-.01,12.49,0,18.73,0Z"/>
  <path class="cls-1" d="M196.65,196.78c-6.11,0-12.22,0-18.33,0-2.57,0-4.04-1.15-4.09-3.15-.05-2.07,1.46-3.29,4.14-3.29,12.29,0,24.58,0,36.86,0,2.58,0,4.04,1.15,4.09,3.15.05,2.06-1.48,3.29-4.14,3.3-6.18,0-12.36,0-18.53,0Z"/>
  <path class="cls-1" d="M238.69,144.81c0,4.16.01,8.32,0,12.47,0,2.53-1.22,4.01-3.22,4.01-2,0-3.21-1.48-3.22-4.01-.01-7.98,0-15.96,0-23.94,0-2.97-.64-3.72-3.58-4.3-1.87-.37-3.03-1.82-2.84-3.54.2-1.73,1.6-2.87,3.53-2.87,4.93,0,9.21,4.32,9.31,9.5.08,4.22.02,8.45.02,12.68h0Z"/>
  <path class="cls-1" d="M148.44,229.02c5.1,0,10.21,0,15.31,0,2.54,0,4.01,1.21,4.01,3.22,0,2.01-1.48,3.21-4.02,3.21-10.21,0-20.41.01-30.62,0-2.54,0-4.01-1.22-4.01-3.23,0-2.01,1.47-3.2,4.02-3.21,5.1-.01,10.21,0,15.31,0Z"/>
  <path class="cls-1" d="M199.8,222.57c-5.04,0-10.07,0-15.11,0-2.54,0-4.01-1.21-4.01-3.22,0-2.01,1.47-3.22,4.01-3.22,10.21,0,20.41,0,30.62,0,2.54,0,4.02,1.21,4.02,3.22,0,2.01-1.48,3.22-4.01,3.22-5.17.01-10.34,0-15.51,0Z"/>
  <path class="cls-1" d="M154.95,190.33c3.02,0,6.04-.02,9.06,0,2.34.02,3.79,1.33,3.74,3.29-.05,1.89-1.45,3.13-3.69,3.14-6.11.03-12.22.03-18.33,0-2.33,0-3.78-1.33-3.74-3.29.04-1.89,1.44-3.12,3.68-3.14,3.09-.03,6.18,0,9.27,0Z"/>
  <path class="cls-1" d="M208.06,206.45c-2.55,0-5.1.03-7.65,0-2.21-.03-3.61-1.32-3.61-3.22,0-1.9,1.4-3.19,3.61-3.21,5.1-.03,10.21-.03,15.31,0,2.21.01,3.61,1.31,3.61,3.21,0,1.89-1.41,3.18-3.62,3.21-2.55.04-5.1,0-7.65,0Z"/>
  <path class="cls-1" d="M162.88,222.57c-2.42,0-4.83.01-7.25,0-2.51-.02-4-1.26-3.96-3.27.03-1.96,1.46-3.16,3.86-3.17,4.97-.02,9.94-.02,14.91,0,2.34.01,3.8,1.31,3.76,3.26-.03,1.94-1.48,3.15-3.86,3.17-2.48.02-4.97,0-7.45,0Z"/>
  <path class="cls-1" d="M138.66,248.36c-2.01,0-4.03.04-6.04-.01-2.16-.05-3.57-1.42-3.51-3.31.06-1.82,1.42-3.09,3.51-3.11,4.09-.04,8.19-.04,12.29,0,2.16.02,3.58,1.42,3.52,3.3-.06,1.81-1.43,3.07-3.51,3.12-2.08.05-4.16.01-6.24.01Z"/>
  <path class="cls-1" d="M137.02,222.57c-1.54,0-3.09.05-4.63-.01-1.93-.09-3.24-1.39-3.28-3.13-.04-1.83,1.3-3.23,3.34-3.27,3.15-.06,6.31-.06,9.47,0,1.93.04,3.24,1.38,3.28,3.13.04,1.82-1.31,3.2-3.34,3.28-1.61.06-3.22.01-4.83.01Z"/>
  <path class="cls-1" d="M237.09,245.1c1.88,0,3.77.13,5.64-.03,3.03-.25,5.72-1.44,7.91-3.59,4.37-4.27,9.59-6.2,15.68-6.04,4.43.12,8.86.01,13.29.03,5.45.02,9.91,3.59,11.02,8.85.36,1.71-.23,3.08-1.91,3.77-1.6.66-2.87.08-3.87-1.24-.08-.11-.17-.22-.21-.34-1.17-4.23-4.19-4.93-8.09-4.65-3.87.28-7.78.05-11.68.07-3.43.02-6.5,1.11-8.96,3.52-4.54,4.44-9.93,6.43-16.24,6.16-2.08-.09-4.16-.02-6.24-.01-3.1.01-4.1.99-4.36,4.23-1.1,13.92,8.17,26.9,21.66,30.35,18.08,4.62,35.71-8.64,36.29-27.31.08-2.6,1.21-4.02,3.21-4.04,2.07-.02,3.27,1.53,3.24,4.19-.23,17.72-14.34,32.67-32.45,34.39-17.37,1.65-34.2-10.71-37.56-27.91-.76-3.89-.75-8.01-.48-11.98.32-4.83,4.42-8.23,9.27-8.36,1.61-.04,3.22,0,4.83,0v-.05Z"/>
  <path class="cls-1" d="M280.58,254.76c0,5.38-4.37,9.73-9.72,9.7-5.26-.03-9.58-4.36-9.6-9.62-.02-5.35,4.35-9.7,9.72-9.7,5.24,0,9.6,4.37,9.6,9.62ZM270.91,258.02c1.73,0,3.18-1.43,3.22-3.16.03-1.8-1.5-3.32-3.31-3.26-1.73.05-3.14,1.53-3.11,3.26.03,1.74,1.48,3.17,3.2,3.17Z"/>
  <path class="cls-1" d="M258.02,267.7c-.03,5.37-4.41,9.71-9.76,9.66-5.26-.05-9.56-4.4-9.56-9.66,0-5.35,4.39-9.68,9.76-9.66,5.24.02,9.58,4.41,9.56,9.66ZM248.28,264.49c-1.73.04-3.15,1.51-3.13,3.24.02,1.74,1.45,3.18,3.18,3.19,1.81.01,3.31-1.54,3.24-3.34-.07-1.73-1.56-3.13-3.29-3.09Z"/>
</svg>