<?xml version="1.0" encoding="UTF-8"?>
<svg xmlns="http://www.w3.org/2000/svg" version="1.1" xmlns:xlink="http://www.w3.org/1999/xlink" viewBox="0 0 1080 1080">
  <defs>
    <style>
      .cls-1 {
        fill: #54716b;
      }

      .cls-2 {
        fill: #c2e2dc;
      }

      .cls-3 {
        fill: #709992;
      }

      .cls-4 {
        fill: url(#Degradado_sin_nombre_14);
      }
    </style>
    <linearGradient id="Degradado_sin_nombre_14" data-name="Degradado sin nombre 14" x1="199.4" y1="567.8" x2="370.7" y2="567.8" gradientUnits="userSpaceOnUse">
      <stop offset="0" stop-color="#a39656"/>
      <stop offset=".5" stop-color="#bdaf70"/>
      <stop offset="1" stop-color="#e0d193"/>
    </linearGradient>
  </defs>
  <!-- Generator: Adobe Illustrator 28.6.0, SVG Export Plug-In . SVG Version: 1.2.0 Build 709)  -->
  <g>
    <g id="Capa_1">
      <g>
        <path class="cls-4" d="M285.2,692.9c-39,.5-74.3-27.5-83.4-65.8-5.5-23.2-1.5-44.5,10.7-64.7,8.6-14.2,16.6-28.8,24.9-43.3,12.8-22.4,25.4-44.8,38.2-67.2,1.1-1.9,2.3-3.7,3.7-5.4,4.2-5.4,8.9-5.2,12.4.6,5.7,9.6,11.2,19.3,16.8,29,17,29.8,34,59.7,51.1,89.5,24.7,43,7.2,97.8-38,118.8-13.1,6.1-22.6,8.3-36.3,8.5Z"/>
        <path class="cls-3" d="M299.6,272c6,9.7,12.1,19.4,18.1,29.1,19.5,32.2,39.1,64.3,58.5,96.5,19.6,32.4,39.4,64.8,58.6,97.5,9,15.4,17.4,31.3,24.5,47.6,9.5,22,12,45.4,11.1,69.3-.6,14.9-2.6,29.6-6.8,43.9-13,43.7-38.6,78.3-76.6,103.3-20.9,13.8-43.8,23.1-68.6,27.4-17.3,3.1-34.7,4.3-52.1,2.2-31.2-3.8-60.1-13.8-86.2-31.7-33.3-22.9-57.2-53-69.9-91.3-8.9-26.6-11.8-54.3-8.6-82.4,2.8-25.2,10.4-48.6,23.6-70.3,9.4-15.4,18.2-31.1,27.4-46.6,6.2-10.4,12.7-20.7,18.9-31.1,7.7-12.9,15.1-25.9,22.8-38.8,16.4-27.2,33-54.4,49.6-81.5,8.5-14,17.3-27.8,25.9-41.7.8-1.2,1.7-2.4,3.3-3.2-1.6,3.3-3,6.7-4.7,9.9-14.8,28.4-29.4,56.9-44.4,85.3-20.3,38.3-40.7,76.6-61.2,114.8-8.5,16-17.7,31.7-25.7,47.9-6.9,13.9-11.5,28.7-14,44.2-3.1,19.4-2.7,38.7.5,57.9,3.5,20.6,11.5,39.7,22.7,57.4,10.6,16.9,23.8,31.7,39.6,43.8,16.3,12.6,34.6,21.8,54.6,27,15.9,4.2,32.1,6.8,48.5,6.2,56.5-2,101.2-26.4,132.9-73.2,21-31,29.5-65.7,27.2-103-1.5-24.7-8.1-47.8-20.6-69.5-13.9-24.2-26.6-49.2-39.6-73.9-13.3-25.2-26.4-50.5-39.6-75.8-7.2-13.8-14.8-27.3-22-41.1-8.9-17.1-17.5-34.3-26.2-51.4-.7-1.4-1.5-2.8-2.3-4.3.3-.2.6-.5.9-.7Z"/>
        <path class="cls-1" d="M260.3,167.1c-.3,1.2-.4,2.6-1,3.7-11,21-22.1,42-33.1,63-10.7,20.3-21.3,40.6-32,60.8-11.9,22.4-23.8,44.8-35.7,67.2-13.4,25.3-26.8,50.6-40.2,75.9-11.2,21-22.7,42-34,63-10.5,19.5-17.8,40.3-21.4,61.9-2.5,15.2-2.1,31-2.3,46.5-.3,27.8,9.1,53.3,20.2,78.2,13.7,30.7,34.4,56.1,60.3,77.4,23.3,19.1,49.7,32.4,79,39.8,10.8,2.7,21.9,4.5,32.8,6.4,13.7,2.4,22.2,10.7,22,25-.2,19.8-.6,39.6-1,59.4,0,2.9-.5,5.7-.9,8.6-.8,6.2-5,9.9-11.4,10-6,0-11.1-4-11.5-9.9-1-14.7-1.7-29.4-2.5-44.1-.3-5.3-.7-10.6-.9-15.9-.1-2.7-1.5-3.7-4.1-4.1-9.9-1.3-19.7-2.6-29.5-4.3-19.4-3.5-37.5-10.8-54.8-19.8-50.4-26-86.5-65.3-108.5-117.5-15.3-36.2-19-74.2-16.1-113.1,1.3-17.7,4.6-34.9,10-51.7,6.3-19.8,16.4-37.7,26.9-55.5,13.6-22.9,27.4-45.6,41.1-68.4,12.4-20.7,24.5-41.6,36.9-62.3,15.3-25.6,30.8-51.2,46.3-76.7,12.4-20.6,24.7-41.2,37.2-61.7,7.9-13.1,15.9-26.1,23.9-39.1.8-1.2,2-2.2,3.1-3.2.4.3.9.6,1.3.8Z"/>
        <path class="cls-1" d="M309.1,166.8c1.4,1.8,3,3.4,4.1,5.4,18.4,30.4,36.7,60.7,55,91.1,19.3,32.1,38.7,64.2,58,96.4,19.3,32.2,38.7,64.3,57.8,96.6,10.3,17.5,20.6,35.1,29.8,53.2,9.5,18.7,15.6,38.6,18.7,59.4,2.8,18.7,3.9,37.5,2.3,56.3-3.1,35.6-13,69.2-31,100.3-12.6,21.9-28.4,41-47.3,57.6-24,21.2-51.3,36.2-81.5,46.6-16.2,5.6-32.9,7.6-49.6,9.9-3.7.5-4.9,2.2-5,5.5-.5,12.4-.9,24.8-1.5,37.2-.3,7.2-.9,14.4-1.4,21.7-.4,5.3-5.1,9.4-10.5,9.7-5.6.2-11.5-3.8-12.2-8.8-.7-4.7-1-9.5-1.2-14.3-.5-17.9-.9-35.8-1.2-53.6-.3-15.3,8.2-24.3,23.4-26.2,23.1-3,45.4-8.7,66.6-18.7,18.6-8.7,35.9-19.3,51-33,12.9-11.7,25.3-24.2,34.6-39.1,6.1-9.8,13.2-19.2,18.1-29.7,16.1-34.3,23-70.6,20.5-108.6-1.4-22.3-6.9-43.6-15.1-64.3-3-7.5-7.2-14.6-11-21.8-7.7-14.4-15.6-28.8-23.3-43.2-12.5-23.5-24.9-47-37.5-70.4-11.6-21.8-23.4-43.5-34.9-65.3-12.2-23.2-24.2-46.5-36.3-69.6-12.9-24.6-26-49.2-39-73.8-.9-1.7-1.5-3.7-2.2-5.6.6-.3,1.2-.5,1.8-.8Z"/>
        <path class="cls-1" d="M1041.9,380.9c.4,15.3.7,36.9,1.7,58.4.7,15.8,2.4,31.5,3.5,47.3.2,2.8,0,5.7,0,8.6-.4,6.8-5.8,9.6-11.9,6.5-7.8-4-11.7-10.5-12.1-19-.9-19.5-1.8-39-2.6-58.5-.5-10.5-1-21-1.3-31.5-.1-3.9-2.6-4.6-5.6-4.2-6.5,1-12.9,2.3-19.3,3.5-.8.1-1.6.4-2.4.6-5.8.9-7.2,2.1-8.3,7.8-2.2,11.1-4.2,22.2-6.4,33.3-2.7,13.1-5.5,26.1-8.3,39.2-1.2,5.7-2.3,11.5-3.7,17.2-.9,4.1-1.2,8.9-5.9,10.5-4.7,1.6-8-1.9-11.7-4.4-7.7-5.3-8.1-11.7-5.9-20.3,5.7-22,10.9-44.2,15.1-66.5,4.2-22.1,6.7-44.5,10.3-66.7,2.3-13.8,5.3-27.6,7.8-41.4,2.2-12.3,3.9-24.7,6.1-37.1,2.5-14.4,5.2-28.7,8.1-43,1.9-9.2,4.1-18.3,6.6-27.4,2.7-9.5,7.5-11.1,17-8.1,4.5,1.4,8.8,3.5,13.2,5.3,3.5,1.4,5.3,4.1,5.6,7.9,2.2,23.6,4.1,47.3,6.7,70.9,3.9,34.8,3.9,69.7,3.6,110.9ZM1012.2,239l-1.3.2c-.3.8-.7,1.6-.9,2.5-2.6,14.9-5,29.8-7.6,44.6-3.2,18-6.6,35.9-9.7,53.8-1.6,9-3,18-4,27-.6,4.9.6,5.6,5.3,4.5,6.2-1.4,12.4-3.2,18.7-4,4.6-.6,6.1-2.7,6.1-6.9,0-10.2.4-20.5,0-30.7-1.3-27.6-3-55.2-4.7-82.9-.2-2.8-1.3-5.5-1.9-8.2Z"/>
        <path class="cls-1" d="M790.1,345c.5,28.8.8,57.6,1.6,86.4.4,13.3,2,26.7,3,40,.5,6.8,1.3,13.6,1.5,20.4.3,9.8-5.3,12.9-14.1,8.5-6.5-3.3-9.2-8.7-9.6-15.5-1.4-24.1-2.7-48.2-4-72.3-.4-6.5-.8-13.1-.9-19.6,0-3.5-1.9-4.7-4.9-4.4-3.6.4-7.3,1.1-10.9,1.7-4.2.7-8.3,1.7-12.5,2.2-3.8.5-5.9,2.5-6.6,6.2-1.6,8.4-2.8,16.9-4.6,25.3-4,18.6-8.3,37.2-12.4,55.9-1.1,4.8-1.6,9.7-2.8,14.4-1.7,6.9-6.2,8.7-12.3,5.3-8.7-4.8-12.1-12.3-9.8-21.9,3.9-16.2,8.2-32.2,11.4-48.5,3.3-16.6,5.6-33.3,8.3-50,1.9-12,3.5-24,5.5-36,4.8-28.9,9.4-57.8,14.9-86.6,3.9-20.7,9-41.2,13.6-61.8,0-.1,0-.3,0-.4,3.5-10.2,7.6-12,17.7-8.1,3.2,1.2,6.4,2.3,9.6,3.6,4.6,1.8,7.4,5.1,8.1,10,.8,5.4,1.5,10.8,2,16.2,1.9,20,3.9,39.9,5.3,59.9,1.6,23,2.7,46,3.9,69h-1.1ZM761.8,245.4c-.6-.1-1.3-.2-1.9-.3-.8,2-2,3.9-2.4,6-2.3,12.6-4.4,25.2-6.7,37.8-2.4,13.1-4.9,26.2-7.2,39.4-2.3,12.9-4.6,25.7-6.6,38.6-.8,5.2.9,6.5,6,5.2,6.9-1.7,13.8-3.3,20.7-4.8,2.5-.6,3.8-2,3.8-4.5,0-2.3.2-4.6,0-7-1.3-33.7-2.6-67.3-4-100.9-.1-3.2-1.1-6.3-1.6-9.4Z"/>
        <path class="cls-1" d="M794.7,828.9c1.1-31.1,2-62.2,3.3-93.3,1.5-35.4,3.3-70.9,5.3-106.3.8-14.4,2.3-28.8,3.5-43.2.5-5.9,2.2-7.6,7.9-7.7,16,0,31.7-2.1,47.4-5.7,6.9-1.6,14.6.3,22,.9,5,.4,10,1.3,15,2.1,1.9.3,3.8.7,5.4,1.6,3.2,1.8,7,3.5,6.4,8.1-.6,4.4-3.6,7-7.8,8-4.4,1.1-8.8,2.1-13.2,2.5-15.9,1.4-31.8,2.5-47.8,3.7-1.1,0-2.2.1-3.3.3-6.7.9-7.8,1.5-8.2,8.3-1.5,25.1-2.6,50.1-3.9,75.2-.2,2.9,1.2,4.4,4.1,4.2,7.2-.5,14.4-1.3,21.6-1.4,8-.2,16,0,24,.4,3.6.2,6.8,2.3,7.6,6.4.9,4.2-1.7,6.8-4.9,8.6-2.1,1.2-4.5,2.2-6.8,2.4-13.1,1-26.2,1.7-39.2,2.5-4.6.3-5.9,1.3-5.9,5.9-.2,27.6,0,55.1-.5,82.7-.4,28-1.3,55.9-2,83.9,0,2-.9,4-1.2,6-.7,3.9-3.4,6.1-6.9,5.5-5.3-.9-10.7-2.3-15.4-4.7-2.2-1.1-3.9-5-4.2-7.8-.9-10.5-1.1-21-1.5-31.5-.2-5.9,0-11.7,0-17.6-.2,0-.4,0-.6,0Z"/>
        <path class="cls-1" d="M613.2,506.4c-10,0-19.6-1.5-28.6-5.9-11.4-5.5-22.3-19.4-20.6-31.8.8-6.2,5-11.4,9.9-11.3,6.4.1,13.7,2.1,14.4,10.2.4,4.6,1.2,9.2,2.5,13.6,3.1,10.1,12.1,12.1,19.5,4.6,6.1-6.2,8.3-14.3,11.1-22.1,3.8-10.8,3.1-22.1,3.7-33.2,1.8-31.2,3.2-62.4,4.9-93.6.9-16.5,1.8-33,3-49.4,1.3-19.2,3-38.3,4.3-57.5.5-7.1.5-14.2.4-21.3,0-4.7-1.4-6.3-6.1-6.5-5.6-.1-11.2.6-16.7.6-5.3,0-10.6,0-15.8-.5-6.8-.7-10.7-5.6-13.7-11.1-1.8-3.4.9-4,3.3-4.2,9.5-.9,19-1.7,28.5-2.5,8.6-.7,17.1-1.4,25.7-1.8,7.8-.3,14.7,2.4,21,6.9,2.6,1.9,2.9,4.7,1.6,7.4-2.8,5.6-1.9,11.3-1.7,17.2.4,14.6.4,29.2,0,43.7-.2,8.3-1.3,16.6-1.8,24.9-2.2,38.8-4.2,77.7-6.3,116.5-1,18.9-1.6,37.9-3.2,56.8-1.3,16.1-7.9,30.5-16,44.3-2.4,4-6.9,4.8-11.1,5.3-4,.5-8.2.5-12.3.8Z"/>
        <path class="cls-1" d="M953.9,803.1c-.5,17.7-1,38.7-1.7,59.7-.2,7.1.6,7.8,7.6,7,12.4-1.6,24.9-3.2,37.3-4.4,4.9-.5,9.8-.2,14.7.2,5.7.5,9.4,4.3,11.9,8.9.8,1.4,0,5.1-1.4,6-2.8,1.9-6.3,3.4-9.6,3.8-14.3,1.9-28.7,3.8-43.1,4.7-9.4.6-19.2.6-28.4-1.1-10.5-2-15.1-9.1-15-20,0-7.9,1.1-15.8,1.4-23.7,1-25.1,1.7-50.2,2.7-75.3,1.1-27.5,1.9-55.1,3.5-82.6,1.7-30.6,5.3-61.2,4.1-91.9-.2-4.2-.5-7.9-3.2-11.5-1.9-2.5-4.9-5.6-2.5-9.2,2.2-3.3,5.7-1.1,8.7-.8,10.5.9,20.9,2,31.4,2.5,14.3.7,28.6.9,43,1.7,7.6.4,14.8,2.9,20.3,8.5,1.4,1.4,2.7,4.4,2.1,6-.7,1.8-3.4,3.9-5.4,4.1-5.3.5-10.6.2-15.9,0-19.5-.7-39-1.5-58.5-2.3-3.2-.1-4.2,1.5-3.8,4.3,3.9,25.1,1.3,50.4,1.1,75.6,0,10.2-1.2,20.4-1.5,30.6-.2,5.5.3,5.5,5.6,5.3,9.8-.4,19.6-1,29.4-1.2,5.7-.1,10.5,2.8,14.8,6.2,3.4,2.6,3.4,5.5.7,8.9-3,3.8-7.3,4.8-11.7,5-11.3.5-22.6.9-33.9,1-3.6,0-4.5,1.7-4.5,4.8,0,7.6-.2,15.3-.3,22.9,0,14.3,0,28.7,0,46.3Z"/>
        <path class="cls-2" d="M266.7,380.8c-1.9,3.8-3.7,7.7-5.7,11.5-9.6,18.4-19.2,36.7-28.9,55-7.2,13.6-14.4,27.2-21.7,40.8-8.9,16.7-17.4,33.7-26.8,50.1-7.3,12.7-13.1,25.8-15.4,40.2-5.3,32.4.4,62.6,19.1,90.1,13.9,20.4,32.3,35.1,55.2,43.8,19.8,7.5,40.3,9.3,61.2,6.1,39.8-6,68.5-28,86.9-63.1,13.5-25.9,16.2-53.8,10.2-82.5-2.5-12.1-7.1-23.3-13.8-33.8-5.5-8.7-9.5-18.4-14.3-27.6-1.8-3.5-3.7-7-5.6-10.4-6.6-12.1-13.2-24.2-19.7-36.3-10.1-18.8-20.3-37.7-30.3-56.6-4.2-7.9-8.1-15.9-12.1-23.9.3-.2.7-.4,1-.6,4.5,7.2,9.1,14.3,13.6,21.6,13,21.3,26,42.6,38.9,63.9,3.5,5.8,6.8,11.8,10.2,17.7,10.6,18.4,20.8,37.1,32.1,55.1,14.2,22.4,18,46.9,16.5,72.5-1.5,24.8-10.5,47.1-25.1,67.3-16.1,22.3-37.2,37.6-62.9,47-20,7.4-40.6,9.8-61.6,6.8-40.1-5.9-71.7-25.5-94.3-59.3-16.2-24.3-21.2-51.3-20.3-79.9.5-15.6,3.3-30.6,10.1-44.7.9-1.8,1.7-3.7,2.8-5.5,7.8-13.3,15.6-26.6,23.4-39.8,1.3-2.2,3.1-4.1,4.4-6.4,6.3-10.9,12.4-22.1,18.9-32.9,16.2-26.9,32.6-53.6,48.9-80.4,1.3-2.1,2.6-4.1,3.9-6.1.3.1.7.3,1,.4Z"/>
        <path class="cls-1" d="M605,878.9c1.3-16,2.7-32.1,3.9-48.1.9-11.8,1.7-23.7,2-35.6.7-29.3.9-58.7,1.7-88,.8-27.4,2.2-54.8,3.3-82.2.6-15.4,1.1-30.8,1.5-46.3.2-7.4,2-9.8,9.3-10.1,6.8-.3,10.9,2.3,12.1,8.5.7,3.5,1,7,1,10.6-.4,26.5-.7,53-1.3,79.4-.5,19.6-1.5,39.3-2,58.9-.4,15.6,0,31.1-.3,46.7-.4,28-2.3,55.9-5.6,83.7-.6,4.7-.5,9.5-.4,14.3,0,4.4,1.2,5.4,5.6,4.7,7.8-1.2,15.5-3,23.4-4.1,8.9-1.3,17.8-2.6,26.7-3.1,7.2-.4,10.6,2.2,11.3,7,.7,4.9-2.5,9.6-8.8,11.1-9.2,2.3-18.6,4-28,5.6-10.6,1.8-21.4,2.5-31.9,4.9-10.3,2.3-16.3-3.4-22.1-9.7-1.7-1.8-1.4-5.3-2.1-8,.2,0,.5,0,.7-.1Z"/>
        <path class="cls-1" d="M860.1,258.9c-.5,20.3-1,40.7-1.4,61-.4,19.6-.7,39.3-1.3,58.9-.8,26-1.4,52.1-4.8,78-1.1,8.9-1.2,17.9-1.5,26.9-.1,4.6.9,5.4,5.4,4.7,14-2.3,27.9-5,41.9-7,4.7-.7,9.8-.1,14.5.6,1.6.2,3.7,2.5,4.2,4.2,1.2,3.8.7,7.9-2.5,10.5-2.2,1.8-5.2,3.1-8,3.6-8.6,1.6-17.2,2.7-25.8,4.1-12.1,1.9-24.2,3.9-36.3,5.8-1.1.2-2.2.3-3.2.2-7.3-1.2-15.8-12.1-14.9-19.4,5.4-41.5,5.8-83.2,6.2-125,.3-28.5,2.1-57,3.1-85.5.8-24.3,1.4-48.6,2.1-72.8.2-5.9.4-11.7.7-17.6.2-5.2,2.7-7.7,7.8-8.2,9.4-.9,14.8,3.8,14.7,13.6-.1,18.3-.6,36.6-.9,54.9,0,2.9,0,5.7,0,8.6h-.1Z"/>
        <path class="cls-1" d="M754.1,575.6c.7,0,2.7,0,4.5.4,4.9.8,7.6,4.6,7.2,9.3-1.3,14.4-2.6,28.8-3.6,43.2-1.7,23.3-3.6,46.5-4.8,69.8-1.3,25.3-2.2,50.7-2.8,76.1-.7,26.2-.7,52.4-1.2,78.6-.2,8.3-.8,16.6-1.4,24.9-.5,7.2-5.5,10-12.2,7.7-6.6-2.3-10.9-7.1-15.1-12-1-1.2-1.6-3.3-1.4-4.9,3.8-28.1,1.4-56.5,2.6-84.6,1.1-24.5,2.9-49,4.5-73.5.8-12.3,1.7-24.5,2.8-36.7,1.9-22.1,3.9-44.3,6-66.4.7-7.5,1.7-14.9,2.6-22.3,1.1-8.4,2.5-9.6,12.2-9.5Z"/>
      </g>
    </g>
  </g>
</svg>