<?xml version="1.0" encoding="UTF-8"?>
<svg id="Capa_1" xmlns="http://www.w3.org/2000/svg" viewBox="0 0 400 400">
  <defs>
    <style>
      .cls-1 {
        fill: #53706a;
      }
    </style>
  </defs>
  <path class="cls-1" d="M139.75,112.11c6.88.15,11.31-3.09,13.21-9.67,3.78-13.08,16.95-18.96,29.2-13.04,6.19,2.99,11.5,1.91,16.06-3.26,9.4-10.66,23.25-10.52,32.55.34,4.02,4.7,9.81,6.2,15.19,3.23,11.39-6.27,26.67-.59,30.06,13.37,1.51,6.21,6.59,9.47,13.05,9.09,12.81-.74,22.95,9.93,21.62,22.74-.91,8.71,1.17,12.31,9.11,15.8,11.36,4.99,15.73,18.49,9.45,29.22-4.35,7.43-3.93,11.66,1.8,17.89,8.5,9.25,7.04,23.4-3.16,30.74-7.05,5.08-8.35,9.01-5.62,17.08,3.99,11.79-2.99,24-15.19,26.69-2.06.45-4.2.93-6.03,1.92-4.4,2.37-6.01,6.45-6.25,11.28-.26,5.37-2.57,9.87-6.51,13.45-5.44,4.94-11.81,6.53-18.98,4.77-7.11-1.74-12.15.49-15.54,6.87-6.15,11.57-20.36,14.68-30.77,6.72-5.98-4.57-11.33-4.59-17.24-.04-10.28,7.91-24.49,4.96-30.72-6.37-3.81-6.92-8.24-8.92-15.83-7.14-12.44,2.92-23.87-5.16-25.33-17.9-1.02-8.88-3.55-11.7-12.18-13.56-.5-.11-1.01-.18-1.5-.32-11.14-3.12-17.5-15.02-13.92-26.04,2.75-8.46,1.46-12.43-5.7-17.54-10.03-7.16-11.46-21.53-3.05-30.56,5.77-6.2,6.23-10.51,1.9-17.89-6.47-11.03-1.86-24.56,10.06-29.57,6.85-2.88,9.5-7.3,8.63-14.4-1.68-13.77,7.77-24.22,21.61-23.91ZM140.01,120.44c-9.13-.43-14.83,5.71-13.7,14.75,1.32,10.58-3.42,18.7-13.28,22.78-7.96,3.3-10.51,11.33-5.96,18.72,5.47,8.87,4.47,18.4-2.72,26-6.22,6.57-5.23,14.54,2.08,19.94,2.73,2.02,5.27,4.68,7.01,7.58,3.36,5.6,3.04,11.65.86,17.75-2.64,7.38,1.67,14.9,9.22,16.45,11.78,2.42,17.08,8.2,18.48,20.16,1.01,8.58,7.52,13.09,16,11.08,10.07-2.39,18.79,1.44,23.75,10.45,4.48,8.14,12.35,9.81,19.7,4.19,8.07-6.17,17.84-6.1,26,.06,1.53,1.16,3.3,2.21,5.12,2.73,5.89,1.67,11.16-.96,14.39-6.86,4.58-8.39,12.82-12.51,21.97-10.97,1.51.25,2.98.78,4.49.94,7.3.75,12.84-4.51,13.51-12.75.8-9.82,7.58-17.28,17.17-18.9,8.92-1.5,13.01-8.62,10.21-17.18-.96-2.93-1.51-6.18-1.35-9.24.36-6.82,3.87-11.97,9.54-15.78,6.9-4.64,8.2-13.34,2.49-18.93-7.38-7.22-9.01-18.23-2.97-27.52,4.32-6.64,1.56-14.99-5.85-17.76-8.92-3.33-15.47-12.42-13.84-23.53,1.27-8.67-4.66-14.63-13.4-14.29-10.04.39-18.01-5.37-20.93-14.98-.58-1.92-1.42-3.89-2.64-5.46-3.73-4.81-9.6-5.81-15.64-2.95-9.33,4.41-18.87,2.42-25.42-5.29-5.89-6.94-13.87-6.95-19.93-.01-6.88,7.88-16.24,9.81-25.62,5.32-1.22-.58-2.51-1.11-3.83-1.34-6.61-1.18-12.14,2.57-14.21,9.52-2.89,9.71-11.08,15.76-20.71,15.31Z"/>
  <path class="cls-1" d="M214.35,113.49c47.77-.03,86.55,38.76,86.54,86.54-.01,47.78-38.84,86.57-86.59,86.5-47.68-.07-86.35-38.75-86.41-86.42-.06-47.77,38.69-86.59,86.46-86.62ZM214.37,121.68c-43.15.01-78.23,35.05-78.3,78.22-.06,43.25,35.09,78.46,78.33,78.45,43.15,0,78.24-35.06,78.3-78.23.06-43.27-35.07-78.45-78.33-78.44Z"/>
  <path class="cls-1" d="M214.39,186.34c7.28-6.62,15.59-11.1,24.92-13.71,11.92-3.34,23.77-2.93,35.48.88,1.37.44,2.95,2.03,3.27,3.37.28,1.17-.72,3.17-1.77,4.05-4.3,3.58-6.13,8.04-5.75,13.52.6,8.57-.58,16.85-4.32,24.64-6,12.47-16.34,19.21-29.67,21.24-6.01.92-12.21.58-18.32.77-2.89.09-5.8-.09-8.68.12-7.63.56-15.17.09-22.55-1.98-15.89-4.46-26.51-17.02-28.34-33.58-.42-3.79-.43-7.65-.35-11.47.11-5.18-1.34-9.6-5.51-12.85-1.53-1.19-2.61-2.51-2.24-4.51.37-1.99,1.82-2.91,3.68-3.45,21.95-6.37,41.75-2.41,59.32,12.3.19.16.4.32.84.67ZM212.77,227.82c1.04-1.27,1.82-2.24,2.61-3.21,7.31-8.95,15.3-17.18,25.02-23.57,2.65-1.74,5.15-1.42,6.49.73,1.32,2.12.49,4.1-1.85,6.1-6.15,5.22-12.28,10.5-18.17,16.01-2.75,2.57-4.94,5.74-7.39,8.63.1.27.2.55.3.82,4.3-.19,8.63-.12,12.88-.63,11.15-1.35,20.39-5.91,25.78-16.4,2.94-5.73,4.3-11.88,3.99-18.27-.31-6.4-.12-12.6,3.82-18.27-1.2-.26-2.08-.51-2.98-.63-13.17-1.66-25.43.96-36.65,8.07-14.5,9.2-19.73,24.25-13.85,40.62ZM208.95,192.83c-10.14-10.89-31.27-16.79-46.18-13.02.12.31.18.64.35.91,2.77,4.53,3.57,9.45,3.31,14.7-.16,3.21-.04,6.49.43,9.67,2.83,19.31,17.69,29.3,38.91,27.82-1.12-3.74-1.8-7.59-5.01-10.33-5.68-4.85-11.22-9.89-16.96-14.67-2.5-2.08-3.33-4.09-1.87-6.26,1.4-2.08,3.92-2.43,6.5-.51,3.96,2.93,7.77,6.08,11.63,9.15.68.54,1.32,1.12,2.33,1.99.46-7.44,2.77-13.68,6.58-19.45Z"/>
</svg>