<?xml version="1.0" encoding="UTF-8"?>
<svg id="Capa_1" xmlns="http://www.w3.org/2000/svg" viewBox="0 0 400 400">
  <defs>
    <style>
      .cls-1 {
        fill: #53706a;
      }
    </style>
  </defs>
  <g>
    <path class="cls-1" d="M214.24,196.58c4.66-1.34,5.7-.88,7.78,3.12,2.31,4.46,4.57,8.94,6.92,13.38,4.96,9.38,6.6,19.25,4.47,29.69-.1.5-.09,1.02-.12,1.42,4.24,1.15,8.5,1.98,12.52,3.45,13.18,4.83,22.9,13.71,29.41,26.11,3.34,6.36,6.6,12.77,9.86,19.17,1.72,3.37,1.17,5.42-2.15,7.03-7.23,3.49-14.27,7.72-21.87,10.08-17.33,5.37-33.53,2.08-48.15-8.74-.76-.56-1.49-1.17-1.98-1.55-2.9,3.92-5.35,8.2-8.7,11.6-12.25,12.42-27.11,16.6-43.78,11.42-17.08-5.31-26.98-17.48-30.07-35.07-.48-2.71-.46-5.53-.46-8.3-.01-54.01,0-108.01.06-162.02,0-2.27-.56-3.43-2.76-4.44-8.25-3.77-12.69-12.95-10.88-21.79,1.84-9.01,9.79-15.95,18.97-15.99,25.22-.12,50.43-.12,75.65,0,9.21.04,16.99,6.86,18.94,16.01,1.88,8.86-2.63,17.98-11.12,21.89-2.09.96-2.63,2.06-2.62,4.25.09,25.49.07,50.97.08,76.46,0,.86,0,1.72,0,2.81ZM205.93,178.84c-.73.21-1.16.28-1.53.46-10.84,4.96-21.23,3.69-31.22-2.37-2.73-1.66-5.23-3.72-7.96-5.37-8.84-5.34-17.82-6.27-26.94-.58-1.47.92-2.08,1.95-2.08,3.76.06,35.36,0,70.73.06,106.09.03,18.69,12.52,32.86,31.02,35.46,14.88,2.09,31.1-7.67,36.19-21.85.27-.76.23-1.88-.14-2.58-5.91-10.96-12.28-21.68-17.77-32.84-9.62-19.57-2.79-43.46,15.74-54.94,3.89-2.41,4.97-4.84,4.72-9-.32-5.33-.08-10.69-.08-16.24ZM205.74,115.35h-69.29v46.76c.35,0,.54.05.67,0,11.33-5.28,22.19-4.09,32.59,2.49,1.3.82,2.14.5,3.24-.19,6.17-3.85,12.87-6.18,20.18-5.43,4.23.44,8.36,1.81,12.61,2.79v-46.41ZM201.99,260c5.58,1.79,10.6,3.41,15.62,5.02,10.38,3.34,20.76,6.67,31.13,10.02,3.12,1.01,4.47,3.06,3.74,5.54-.74,2.52-3.12,3.41-6.43,2.35-14.5-4.66-28.99-9.33-43.48-13.99-.92-.3-1.85-.56-3.03-.91,17.26,42.99,53.75,41.91,76.61,25.66-3.06-5.9-6.03-11.86-9.22-17.71-4.22-7.72-10.23-13.77-18.02-17.86-15.76-8.27-31.23-7.18-46.91,1.89ZM171.33,83.42c-12.31,0-24.61-.03-36.92.01-6.92.02-12.04,5-12.08,11.62-.04,6.62,5.09,11.75,11.94,11.76,24.61.04,49.23.04,73.84-.04,1.84,0,3.81-.51,5.48-1.31,4.87-2.33,7.32-7.88,6.06-13.11-1.24-5.18-5.87-8.88-11.4-8.91-12.31-.06-24.61-.02-36.92-.02ZM215.81,205.7c-22.28,9.18-33.26,33.22-22.65,49.41,9.48-5.26,19.15-10.07,30.28-10.84.55-.04,1.42-1.06,1.48-1.69.38-4.2,1.02-8.45.75-12.63-.58-9.06-6.16-16.2-9.85-24.25ZM179.21,170.55c7.02,4.56,17.02,4.54,23.69.04-6.23-4.5-16.29-4.56-23.69-.04Z"/>
    <path class="cls-1" d="M152.3,242.83c0,10.23-.01,20.46.01,30.69,0,2.07-.53,3.77-2.6,4.63-2.22.93-4.67-.18-5.4-2.55-.27-.89-.32-1.88-.32-2.82-.02-20.03-.02-40.05,0-60.08,0-.94.05-1.92.3-2.82.58-2.02,2.09-2.99,4.11-2.86,2.15.13,3.53,1.35,3.81,3.56.11.85.07,1.73.08,2.6,0,9.88,0,19.77,0,29.65Z"/>
    <path class="cls-1" d="M152.25,189.89c0,1.03.07,2.07-.02,3.1-.2,2.21-1.59,3.48-3.68,3.68-2.11.21-3.94-.83-4.22-2.96-.35-2.61-.35-5.33,0-7.93.29-2.12,2.09-3.15,4.23-2.93,2.12.21,3.45,1.49,3.66,3.69.1,1.11.02,2.24.02,3.36Z"/>
  </g>
  <text/>
</svg>