<?xml version="1.0" encoding="UTF-8"?>
<svg id="Capa_1" xmlns="http://www.w3.org/2000/svg" viewBox="0 0 400 400">
  <defs>
    <style>
      .cls-1 {
        fill: #53706a;
      }
    </style>
  </defs>
  <g>
    <path class="cls-1" d="M99.12,149.17c0-1.01,0-2.02,0-3.02,0-17.68-.04-35.37.02-53.05.03-10.64,6.32-18.59,16.19-20.6,1.42-.29,2.9-.35,4.35-.35,50.48-.02,100.95-.04,151.43,0,10.26,0,18.4,6.41,20.16,16.03.63,3.42.47,7.01.38,10.52-.05,2.02.62,2.94,2.45,3.83,20.43,9.92,31.89,26.29,32.22,48.98.34,23.49-11.14,40.45-32.21,50.8-1.85.91-2.45,1.81-2.45,3.81.07,23.09-.05,46.18.14,69.27.03,3.59-.96,6.01-3.51,8.5-14.14,13.78-28.12,27.72-42.11,41.65-1.56,1.56-3.17,2.32-5.43,2.31-40.09-.05-80.18-.03-120.27-.05-9.97,0-17.5-4.96-20.22-13.6-.83-2.64-1.09-5.56-1.1-8.35-.07-36.23-.06-72.45,0-108.68,0-2.23-.61-3.83-2.22-5.41-7.18-7.02-14.2-14.21-21.37-21.24-1.91-1.88-2.32-3.76-1.46-6.25,2.6-7.53,7.29-13.1,14.68-16.3,3.58-1.55,7.05-2.79,9.81,1.65.17-.15.34-.31.51-.46ZM283.63,206.09c-32.7,7.96-66.89-17.89-66.63-54.05.25-34.33,32.07-60.69,66.76-53.25,0-1.83,0-3.63,0-5.42-.02-8.35-4.94-13.31-13.28-13.31-50.05-.01-100.1-.01-150.15,0-8.33,0-13.22,4.97-13.22,13.36,0,20.69.02,41.38-.04,62.07,0,1.77.5,3.01,1.76,4.26,25.18,25.08,50.31,50.21,75.43,75.35.7.7,1.31,1.63,1.59,2.56,2.15,7.22,4.18,14.49,6.33,21.71.55,1.86.88,3.85-.87,4.9-1.28.77-3.27,1.08-4.72.7-7.37-1.93-14.68-4.13-21.99-6.31-.86-.26-1.72-.8-2.36-1.44-17.61-17.6-35.19-35.22-52.78-52.84-.64-.64-1.32-1.24-2.36-2.21,0,1.32,0,2.14,0,2.97,0,33.74,0,67.48,0,101.21,0,8.71,4.83,13.55,13.55,13.55,38.2,0,76.4,0,114.6,0,.9,0,1.8-.08,2.91-.13,0-1.23,0-2.17,0-3.1,0-7.55-.1-15.11.03-22.66.19-11.53,8.13-19.27,19.63-19.31,5.06-.02,10.13,0,15.19,0,3.49,0,6.99,0,10.61,0v-68.61ZM271.87,199.15c25.8-.1,46.6-20.96,46.58-46.72-.01-25.88-20.96-46.78-46.83-46.73-25.82.05-46.68,21.09-46.59,46.98.09,25.69,21.13,46.57,46.84,46.47ZM176.22,237.91c-.69-.54-1.51-1.06-2.18-1.72-19.19-19.17-38.37-38.35-57.55-57.53-7.4-7.4-14.82-14.76-22.16-22.22-1.16-1.18-2.09-1.39-3.54-.62-3.19,1.71-5.64,4.09-7.48,7.22-1.08,1.83-.98,3,.63,4.61,26.58,26.46,53.09,53,79.62,79.52.6.6,1.23,1.16,1.77,1.67,3.54-3.56,6.99-7.01,10.89-10.93ZM246.32,313.95c10.34-10.63,20.43-20.99,30.27-31.11-6.64,0-13.85-.18-21.03.06-4.61.16-8.85,3.97-9.13,8.69-.43,7.31-.11,14.66-.11,22.35ZM173.54,252.91c2.85.83,5.79,1.69,9.17,2.67-.99-3.39-1.84-6.29-2.71-9.25-2.24,2.29-4.3,4.38-6.45,6.58Z"/>
    <path class="cls-1" d="M179.73,281.08c-13.47,0-26.94,0-40.42,0-.94,0-1.9.03-2.82-.11-2.2-.33-3.34-1.76-3.34-3.9,0-2.16,1.28-3.49,3.4-3.89.66-.13,1.37-.06,2.05-.06,27.37,0,54.75,0,82.12,0,.69,0,1.39-.07,2.05.08,2.09.46,3.35,1.73,3.33,3.94-.03,2.19-1.23,3.51-3.39,3.85-.84.13-1.71.1-2.57.1-13.47,0-26.94,0-40.42,0Z"/>
    <path class="cls-1" d="M178.72,296.73c13.2,0,26.41,0,39.61,0,.86,0,1.74-.07,2.56.09,2.01.4,3.16,1.67,3.2,3.75.04,2.19-1.11,3.55-3.24,3.97-.83.16-1.71.09-2.57.09-26.41,0-52.82,0-79.23,0-.34,0-.69,0-1.03,0-3.16-.05-4.94-1.49-4.92-3.98.01-2.49,1.78-3.92,4.96-3.93,13.55-.01,27.1,0,40.64,0Z"/>
    <path class="cls-1" d="M230.19,234.4c-9.01,0-18.02,0-27.03-.01-.93,0-1.9-.03-2.8-.26-1.9-.49-2.9-1.88-2.9-3.77,0-1.9,1.02-3.27,2.89-3.79.81-.23,1.69-.24,2.54-.24,18.19-.01,36.38-.01,54.57,0,.85,0,1.74,0,2.54.23,1.87.52,2.89,1.86,2.89,3.79,0,1.91-.98,3.29-2.88,3.78-.9.23-1.86.26-2.8.26-9.01.02-18.02.01-27.03.01Z"/>
    <path class="cls-1" d="M233.01,249.95c8.31,0,16.63,0,24.94,0,3.13,0,4.95,1.48,4.97,3.94.02,2.48-1.76,3.99-4.91,3.99-16.71.02-33.43.02-50.14,0-3.07,0-4.94-1.63-4.87-4.06.07-2.43,1.93-3.87,5.07-3.87,8.31-.01,16.63,0,24.94,0Z"/>
    <path class="cls-1" d="M181.6,187.6c-7.55,0-15.11.02-22.66-.01-3-.01-4.77-1.72-4.59-4.29.16-2.33,1.78-3.66,4.69-3.68,5.32-.04,10.64-.01,15.96-.01,9.7,0,19.4-.02,29.09.03,1.16,0,2.76.04,3.38.74.94,1.08,1.74,2.78,1.64,4.16-.15,2.15-1.96,3.06-4.09,3.07-6.44.01-12.87,0-19.31,0-1.37,0-2.75,0-4.12,0Z"/>
    <path class="cls-1" d="M201.86,211.22c-6.43,0-12.86.05-19.28-.02-3.74-.04-6.06-3.26-4.1-5.88.9-1.19,2.98-2.07,4.54-2.09,11.4-.17,22.8-.09,34.2-.09,1.46,0,2.92-.04,4.37.01,2.91.09,4.59,1.64,4.54,4.12-.05,2.35-1.69,3.9-4.47,3.93-6.6.06-13.2.02-19.8.02Z"/>
    <path class="cls-1" d="M264.07,162.31v-4.89c-.56-.13-1.13-.25-1.7-.38-3.71-.87-6.33-4.27-6.14-7.96.2-3.91,2.99-7.12,6.9-7.43,3.31-.26,6.66-.24,9.97,0,3.77.28,6.57,3.34,6.72,7.13.15,3.75.07,7.51.08,11.26,0,.72,0,1.44,0,2.17.77.2,1.41.34,2.03.53,3.79,1.15,6.02,4.69,5.5,8.71-.46,3.59-3.57,6.52-7.32,6.61-5.21.12-10.42.11-15.63.04-4.35-.06-7.61-3.08-7.94-7.19-.34-4.13,2.35-7.56,6.61-8.46.28-.06.57-.1.91-.16ZM274.31,157.37c0-2.54.02-5.09,0-7.63-.01-1.55-.72-2.57-2.38-2.59-2.6-.04-5.21-.05-7.81,0-1.34.03-2.15.8-2.17,2.17-.02,1.37.73,2.14,2.09,2.24.96.07,1.94-.03,2.9.07,1.66.16,2.75,1.03,2.78,2.77.05,3.63.06,7.27-.01,10.9-.03,1.62-1.03,2.54-2.66,2.65-.9.06-1.82-.03-2.72.07-1.31.15-2.13.9-2.11,2.27.02,1.37.86,2.09,2.17,2.22.78.08,1.57.03,2.36.03,4.12,0,8.24,0,12.35,0,1.53,0,2.63-.58,2.8-2.21.14-1.38-1.02-2.3-2.82-2.36-.54-.02-1.09,0-1.63-.01-2.1-.08-3.09-1.04-3.12-3.15-.03-2.48,0-4.97-.01-7.45Z"/>
    <path class="cls-1" d="M278.49,128.96c.05,4.64-3.7,8.48-8.35,8.55-4.58.07-8.5-3.77-8.53-8.38-.04-4.62,3.76-8.51,8.36-8.55,4.63-.04,8.47,3.74,8.52,8.38ZM272.87,129.12c.04-1.48-1.2-2.79-2.71-2.85-1.53-.06-2.83,1.11-2.91,2.63-.09,1.57,1.21,2.95,2.78,2.96,1.49,0,2.79-1.25,2.84-2.73Z"/>
  </g>
  <path class="cls-1" d="M167.1,111.69c6.52-4.83,14.38-6.66,22.51-7.71,1.31-.17,2.37.28,2.91,1.5,3.25,7.35,5.73,14.87,5.01,23.08-.76,8.76-5.39,15-12.71,19.48-5.35,3.27-11.28,4.98-17.3,6.55-3,.79-5.7.11-8.49-.53-7.6-1.74-14.9-4.25-21.26-8.94-8.64-6.37-12.33-15.01-11.67-25.63.45-7.26,2.68-14.02,5.55-20.63.53-1.22,1.41-1.91,2.74-1.77,8.85.94,17.46,2.76,24.94,7.89,2.74,1.88,5.08,4.35,7.78,6.7ZM164.07,146.37c1.93-6.59,3.18-12.83,2.64-19.33-.69-8.34-4.57-14.68-11.82-18.89-5.89-3.41-12.37-4.87-19.49-5.8-1.21,4.18-2.68,8.31-3.56,12.56-1.64,7.84-.98,15.41,4.43,21.83,6.02,7.15,14.4,9.93,23.34,12.23-.42-.75-.67-1.22-.94-1.68-5-8.66-10-17.31-14.99-25.97-.32-.56-.68-1.1-.9-1.7-.48-1.27-.09-2.34,1.03-3.06,1.15-.73,2.27-.52,3.2.44.4.41.67.96.96,1.47,2.62,4.53,5.23,9.08,7.85,13.61,2.67,4.62,5.35,9.25,8.26,14.28ZM169.01,148.91c5.56-1.45,10.96-3.33,15.62-6.9,4.6-3.53,7.3-8.13,7.83-13.96.51-5.63-.92-10.91-2.81-16.12-.96-2.64-.99-2.69-3.79-2.19-5.51.98-10.8,2.57-15.43,5.87-.7.5-1.14.89-.72,1.93,2.35,5.8,2.68,11.87,1.84,17.97-.61,4.43-1.65,8.8-2.54,13.39Z"/>
</svg>