<?xml version="1.0" encoding="UTF-8"?>
<svg xmlns="http://www.w3.org/2000/svg" version="1.1" xmlns:xlink="http://www.w3.org/1999/xlink" viewBox="0 0 1080 1080">
  <defs>
    <style>
      .cls-1 {
        fill: #54716b;
      }

      .cls-2 {
        fill: #c2e2dc;
      }

      .cls-3 {
        fill: #709992;
      }

      .cls-4 {
        fill: url(#Degradado_sin_nombre_14);
      }
    </style>
    <linearGradient id="Degradado_sin_nombre_14" data-name="Degradado sin nombre 14" x1="432.8" y1="575.2" x2="649.5" y2="575.2" gradientUnits="userSpaceOnUse">
      <stop offset="0" stop-color="#a39656"/>
      <stop offset=".5" stop-color="#bdaf70"/>
      <stop offset="1" stop-color="#e0d193"/>
    </linearGradient>
  </defs>
  <!-- Generator: Adobe Illustrator 28.6.0, SVG Export Plug-In . SVG Version: 1.2.0 Build 709)  -->
  <g>
    <g id="Capa_1">
      <g>
        <path class="cls-4" d="M541.3,733.5c-49.3.6-94-34.9-105.5-83.2-7-29.3-1.9-56.3,13.6-81.9,10.9-18,21-36.4,31.5-54.7,16.1-28.3,32.2-56.7,48.3-85,1.4-2.4,2.9-4.7,4.6-6.9,5.3-6.8,11.2-6.6,15.6.8,7.2,12.1,14.2,24.5,21.2,36.7,21.6,37.7,43,75.5,64.7,113.2,31.3,54.4,9.1,123.7-48.1,150.2-16.6,7.7-28.7,10.5-45.9,10.7Z"/>
        <path class="cls-3" d="M559.5,200.9c7.6,12.3,15.3,24.5,22.9,36.8,24.7,40.7,49.4,81.4,74.1,122.1,24.8,41.1,49.9,81.9,74.1,123.4,11.4,19.5,22.1,39.6,31,60.2,12,27.8,15.2,57.5,14,87.7-.7,18.9-3.3,37.4-8.7,55.6-16.4,55.3-48.9,99-96.9,130.7-26.4,17.4-55.4,29.2-86.8,34.7-21.9,3.9-43.8,5.5-65.9,2.8-39.5-4.8-76.1-17.4-109.1-40.1-42.1-29-72.4-67.1-88.5-115.5-11.2-33.7-14.9-68.6-10.9-104.2,3.5-31.9,13.1-61.5,29.9-89,11.9-19.4,23-39.3,34.6-58.9,7.8-13.2,16-26.2,23.9-39.4,9.7-16.3,19.1-32.8,28.9-49.1,20.8-34.4,41.7-68.8,62.7-103.1,10.8-17.7,21.8-35.2,32.8-52.8,1-1.6,2.1-3.1,4.1-4.1-2,4.2-3.8,8.4-6,12.5-18.7,36-37.2,72-56.2,107.9-25.6,48.5-51.5,96.9-77.4,145.3-10.8,20.2-22.4,40.1-32.6,60.6-8.7,17.6-14.6,36.3-17.7,56-3.9,24.5-3.5,49,.6,73.2,4.4,26.1,14.6,50.3,28.7,72.7,13.5,21.4,30.2,40.1,50.1,55.4,20.7,15.9,43.7,27.5,69.1,34.2,20.1,5.3,40.6,8.6,61.4,7.8,71.5-2.6,128.1-33.3,168.2-92.6,26.5-39.2,37.3-83.1,34.4-130.3-1.9-31.3-10.2-60.5-26-87.9-17.6-30.7-33.6-62.3-50.1-93.6-16.8-31.9-33.3-63.9-50.1-95.9-9.1-17.4-18.7-34.6-27.8-52-11.2-21.6-22.1-43.3-33.1-65-.9-1.8-1.9-3.6-2.9-5.4.4-.3.7-.6,1.1-.9Z"/>
        <path class="cls-1" d="M509.8,68.2c-.4,1.6-.5,3.3-1.2,4.6-13.9,26.6-27.9,53.1-41.9,79.7-13.5,25.6-26.9,51.3-40.5,76.9-15,28.4-30.1,56.7-45.2,85-17,32-33.8,64.1-50.9,96-14.2,26.6-28.7,53.1-43,79.7-13.3,24.6-22.5,51-27,78.4-3.2,19.2-2.7,39.2-2.9,58.8-.3,35.2,11.5,67.4,25.5,98.9,17.3,38.9,43.6,71,76.3,97.9,29.5,24.2,62.9,41.1,99.9,50.4,13.7,3.4,27.7,5.6,41.5,8.1,17.3,3.1,28.1,13.6,27.9,31.6-.3,25-.7,50.1-1.2,75.1,0,3.6-.6,7.2-1.1,10.8-1,7.8-6.3,12.5-14.5,12.6-7.6,0-14.1-5-14.6-12.6-1.3-18.6-2.1-37.2-3.1-55.8-.4-6.7-.8-13.4-1.1-20.2-.2-3.4-1.9-4.7-5.2-5.2-12.5-1.7-25-3.2-37.3-5.5-24.5-4.4-47.4-13.7-69.4-25-63.8-32.9-109.5-82.6-137.3-148.6-19.3-45.8-24.1-93.8-20.4-143.1,1.7-22.4,5.9-44.1,12.6-65.4,7.9-25,20.7-47.7,34-70.2,17.2-28.9,34.7-57.7,51.9-86.6,15.7-26.2,31-52.6,46.7-78.8,19.4-32.4,39-64.7,58.5-97.1,15.7-26,31.3-52.1,47-78.1,10-16.5,20.1-33,30.3-49.5,1-1.6,2.6-2.7,3.9-4.1.6.4,1.1.7,1.7,1.1Z"/>
        <path class="cls-1" d="M571.5,67.8c1.8,2.3,3.8,4.3,5.2,6.8,23.2,38.4,46.4,76.8,69.5,115.3,24.5,40.6,49,81.3,73.4,122,24.4,40.7,49,81.3,73.1,122.2,13.1,22.1,26.1,44.4,37.7,67.3,12,23.6,19.7,48.8,23.7,75.2,3.5,23.7,4.9,47.4,2.9,71.3-3.9,45.1-16.5,87.5-39.2,127-16,27.7-36,51.8-59.8,72.9-30.3,26.8-64.9,45.8-103.1,59-20.4,7-41.6,9.7-62.8,12.5-4.7.6-6.1,2.7-6.3,7-.6,15.7-1.2,31.4-1.9,47.1-.4,9.1-1.1,18.3-1.8,27.4-.5,6.7-6.4,11.9-13.3,12.2-7.1.3-14.5-4.7-15.5-11.2-.9-6-1.3-12-1.5-18-.6-22.6-1.1-45.2-1.5-67.9-.3-19.3,10.4-30.7,29.6-33.2,29.2-3.8,57.4-11.1,84.3-23.7,23.5-11,45.4-24.5,64.5-41.8,16.4-14.8,32-30.6,43.8-49.5,7.8-12.4,16.7-24.3,22.9-37.5,20.4-43.4,29.1-89.4,26-137.4-1.8-28.2-8.7-55.2-19.1-81.3-3.8-9.5-9.1-18.5-13.9-27.6-9.7-18.3-19.7-36.4-29.4-54.7-15.8-29.7-31.6-59.4-47.4-89.1-14.7-27.6-29.6-55-44.2-82.6-15.5-29.3-30.6-58.8-46-88.1-16.4-31.2-32.9-62.2-49.3-93.4-1.2-2.2-1.9-4.7-2.8-7,.7-.3,1.5-.7,2.2-1Z"/>
        <path class="cls-2" d="M518,338.6c-2.4,4.9-4.7,9.8-7.2,14.6-12.1,23.2-24.3,46.5-36.5,69.6-9.1,17.2-18.3,34.4-27.4,51.6-11.2,21.1-22,42.6-33.9,63.4-9.2,16.1-16.5,32.6-19.5,50.8-6.7,41.1.5,79.3,24.2,114,17.5,25.8,40.8,44.4,69.9,55.4,25,9.5,51,11.7,77.4,7.7,50.3-7.6,86.7-35.4,109.9-79.8,17.1-32.8,20.5-68.1,12.9-104.3-3.2-15.4-9-29.4-17.5-42.8-7-11-12.1-23.2-18-34.9-2.3-4.4-4.7-8.8-7-13.2-8.3-15.3-16.6-30.6-24.9-45.9-12.8-23.8-25.6-47.7-38.3-71.6-5.3-10-10.2-20.2-15.3-30.3.4-.2.8-.5,1.3-.7,5.7,9.1,11.5,18.1,17.1,27.3,16.5,26.9,32.9,53.9,49.3,80.8,4.5,7.4,8.5,15,12.9,22.5,13.5,23.3,26.3,47,40.7,69.7,18,28.3,22.8,59.3,20.9,91.7-1.9,31.4-13.3,59.6-31.8,85.1-20.4,28.2-47.1,47.6-79.6,59.5-25.3,9.3-51.4,12.5-77.9,8.5-50.7-7.4-90.7-32.2-119.3-75.1-20.5-30.7-26.8-64.9-25.7-101.1.6-19.7,4.2-38.7,12.8-56.6,1.1-2.3,2.2-4.7,3.5-6.9,9.8-16.8,19.7-33.6,29.6-50.4,1.7-2.8,4-5.2,5.6-8.1,8-13.9,15.7-27.9,23.9-41.6,20.5-34,41.3-67.8,61.9-101.7,1.6-2.6,3.3-5.2,4.9-7.8.4.2.8.4,1.2.5Z"/>
      </g>
    </g>
  </g>
</svg>